<?xml version="1.0" encoding="utf-8"?>
<!-- Generator: Adobe Illustrator 25.3.1, SVG Export Plug-In . SVG Version: 6.00 Build 0)  -->
<svg version="1.1" id="Layer_1" xmlns="http://www.w3.org/2000/svg" xmlns:xlink="http://www.w3.org/1999/xlink" x="0px" y="0px"
	 viewBox="0 0 1190.7 565" style="enable-background:new 0 0 1190.7 565;" xml:space="preserve">
<style type="text/css">
	.st0{fill:#FFFFFF;stroke:#000000;stroke-width:4;stroke-miterlimit:10;}
	.st1{enable-background:new    ;}
	.st2{fill:#BA2A2A;stroke:#000000;stroke-width:4;stroke-miterlimit:10;}
	.st3{fill:#2B5DB7;stroke:#000000;stroke-width:4;stroke-miterlimit:10;}
	.st4{fill:#2BB735;stroke:#000000;stroke-width:4;stroke-miterlimit:10;}
	.st5{fill:none;stroke:#000000;stroke-width:4;stroke-miterlimit:10;}
	.st6{fill:none;stroke:#000000;stroke-width:4;stroke-linecap:round;stroke-miterlimit:10;}
</style>
<path class="st0" d="M721.8,487.7H468.9c-2.2,0-4-1.8-4-4V81.4c0-2.2,1.8-4,4-4h252.9c2.2,0,4,1.8,4,4v402.3
	C725.8,485.9,724,487.7,721.8,487.7z"/>
<g class="st1">
	<path d="M486.6,100l-1.7-3.3h-0.1v11.8h-2.4V93.1h2.8l5,8.5l1.7,3.3h0.1V93.1h2.4v15.4h-2.8L486.6,100z"/>
	<path d="M497.2,102.8c0-3.7,2.1-6,5.3-6s5.3,2.3,5.3,6s-2.1,6-5.3,6S497.2,106.4,497.2,102.8z M505.2,103.7v-1.9c0-2-1.1-3-2.7-3
		c-1.6,0-2.7,1-2.7,3v1.9c0,2,1.1,3,2.7,3C504.1,106.8,505.2,105.7,505.2,103.7z"/>
	<path d="M517.6,106.6L517.6,106.6c-0.6,1.3-1.8,2.2-3.3,2.2c-2.9,0-4.6-2.2-4.6-6s1.7-6,4.6-6c1.5,0,2.7,0.8,3.2,2.2h0.1v-6.8h2.4
		v16.3h-2.4V106.6z M517.6,104.7v-3.9c0-1.2-1.1-2-2.6-2c-1.7,0-2.8,1.2-2.8,2.9v2c0,1.8,1.1,2.9,2.8,2.9
		C516.5,106.7,517.6,105.9,517.6,104.7z"/>
	<path d="M522.7,102.8c0-3.7,2-6,5.3-6c3.4,0,5.1,2.5,5.1,5.7v0.9h-7.9v0.4c0,1.8,1.1,3,3,3c1.4,0,2.4-0.7,3-1.7l1.4,1.4
		c-0.9,1.4-2.5,2.3-4.7,2.3C524.7,108.7,522.7,106.4,522.7,102.8z M525.2,101.6v0.2h5.3v-0.2c0-1.8-1-2.9-2.6-2.9
		C526.3,98.6,525.2,99.9,525.2,101.6z"/>
	<path d="M545.2,100l-1.7-3.3h-0.1v11.8H541V93.1h2.8l5,8.5l1.7,3.3h0.1V93.1h2.4v15.4h-2.8L545.2,100z"/>
	<path d="M565,108.5c-1.3,0-1.9-0.8-2.1-1.9h-0.1c-0.4,1.4-1.7,2.2-3.3,2.2c-2.4,0-3.7-1.3-3.7-3.4c0-2.3,1.7-3.4,4.9-3.4h2.1v-1
		c0-1.4-0.7-2.2-2.4-2.2c-1.3,0-2.2,0.7-2.7,1.6l-1.4-1.3c0.7-1.3,2.1-2.2,4.3-2.2c2.9,0,4.6,1.5,4.6,4v5.7h1.2v2H565L565,108.5
		L565,108.5z M562.7,105.1v-1.7h-2c-1.7,0-2.5,0.6-2.5,1.5v0.4c0,1,0.7,1.5,1.9,1.5C561.6,106.9,562.7,106.2,562.7,105.1z"/>
	<path d="M568.6,108.5V97.1h2.4V99h0.1c0.5-1.2,1.3-2.2,3.1-2.2c1.5,0,2.8,0.7,3.4,2.3h0.1c0.4-1.3,1.6-2.3,3.5-2.3
		c2.3,0,3.6,1.6,3.6,4.4v7.3h-2.5v-7c0-1.8-0.7-2.7-2.1-2.7c-1.2,0-2.3,0.6-2.3,2v7.7h-2.4v-7c0-1.8-0.7-2.7-2.1-2.7
		c-1.2,0-2.4,0.6-2.4,2v7.7H568.6z"/>
	<path d="M587.3,102.8c0-3.7,2-6,5.3-6c3.4,0,5.1,2.5,5.1,5.7v0.9h-7.9v0.4c0,1.8,1.1,3,3,3c1.4,0,2.4-0.7,3-1.7l1.4,1.4
		c-0.9,1.4-2.5,2.3-4.7,2.3C589.3,108.7,587.3,106.4,587.3,102.8z M589.8,101.6v0.2h5.3v-0.2c0-1.8-1-2.9-2.6-2.9
		C590.9,98.6,589.8,99.9,589.8,101.6z"/>
</g>
<g class="st1">
	<path d="M486.8,397.6v-2h2.1v-11.4h-2.1v-2h6.7v2h-2.1v11.3h2.1v2h-6.7V397.6z"/>
	<path d="M496.5,397.6v-11.4h2.4v1.9h0.1c0.5-1.2,1.5-2.2,3.2-2.2c2.3,0,3.7,1.6,3.7,4.4v7.3h-2.4v-7c0-1.8-0.7-2.7-2.2-2.7
		c-1.3,0-2.5,0.6-2.5,2v7.7L496.5,397.6L496.5,397.6z"/>
	<path d="M509.2,386.1h2.4v1.9h0.1c0.5-1.4,1.7-2.2,3.2-2.2c2.9,0,4.6,2.2,4.6,6s-1.7,6-4.6,6c-1.5,0-2.7-0.8-3.2-2.2h-0.1v6.3h-2.4
		V386.1z M517,392.8v-2c0-1.8-1.1-2.9-2.8-2.9c-1.5,0-2.6,0.8-2.6,2v3.9c0,1.2,1.1,2,2.6,2C515.9,395.8,517,394.6,517,392.8z"/>
	<path d="M529.2,395.7L529.2,395.7c-0.5,1.1-1.4,2.2-3.3,2.2c-2.4,0-3.7-1.6-3.7-4.4v-7.3h2.4v7c0,1.7,0.7,2.7,2.2,2.7
		c1.2,0,2.4-0.6,2.4-2v-7.7h2.4v11.4h-2.4L529.2,395.7L529.2,395.7z"/>
	<path d="M538.2,397.6c-1.7,0-2.5-0.9-2.5-2.5v-7h-1.8v-2h1c0.8,0,1.1-0.3,1.1-1.1v-2h2.2v3.1h2.4v2h-2.4v7.5h2.2v2H538.2z"/>
	<path d="M552.5,389.1l-1.7-3.3h-0.1v11.8h-2.4v-15.4h2.8l5,8.5l1.7,3.3h0.1v-11.8h2.4v15.4h-2.8L552.5,389.1z"/>
	<path d="M572.3,397.6c-1.3,0-1.9-0.8-2.1-1.9h-0.1c-0.4,1.4-1.7,2.2-3.3,2.2c-2.4,0-3.7-1.3-3.7-3.4c0-2.3,1.7-3.4,4.9-3.4h2.1v-1
		c0-1.4-0.7-2.2-2.4-2.2c-1.3,0-2.2,0.7-2.7,1.6l-1.4-1.3c0.7-1.3,2.1-2.2,4.3-2.2c2.9,0,4.6,1.5,4.6,4v5.7h1.2v2h-1.4L572.3,397.6
		L572.3,397.6z M570,394.2v-1.7h-2c-1.7,0-2.5,0.6-2.5,1.5v0.4c0,1,0.7,1.5,1.9,1.5C568.9,396,570,395.3,570,394.2z"/>
	<path d="M576,397.6v-11.4h2.4v1.9h0.1c0.5-1.2,1.3-2.2,3.1-2.2c1.5,0,2.8,0.7,3.4,2.3h0.1c0.4-1.3,1.6-2.3,3.5-2.3
		c2.3,0,3.6,1.6,3.6,4.4v7.3h-2.4v-7c0-1.8-0.7-2.7-2.1-2.7c-1.2,0-2.3,0.6-2.3,2v7.7H583v-7c0-1.8-0.7-2.7-2.1-2.7
		c-1.2,0-2.4,0.6-2.4,2v7.7L576,397.6L576,397.6z"/>
	<path d="M594.6,391.9c0-3.7,2-6,5.3-6c3.4,0,5.1,2.5,5.1,5.7v0.9h-7.9v0.4c0,1.8,1.1,3,3,3c1.4,0,2.4-0.7,3-1.7l1.4,1.4
		c-0.9,1.4-2.5,2.3-4.7,2.3C596.6,397.8,594.6,395.5,594.6,391.9z M597.1,390.7v0.2h5.3v-0.2c0-1.8-1-2.9-2.6-2.9
		C598.3,387.7,597.1,389,597.1,390.7z"/>
</g>
<g class="st1">
	<path d="M486.8,306.7v-2h2.1v-11.3h-2.1v-2h6.7v2h-2.1v11.3h2.1v2H486.8z"/>
	<path d="M496.5,306.7v-11.4h2.4v1.9h0.1c0.5-1.2,1.5-2.2,3.2-2.2c2.3,0,3.7,1.6,3.7,4.4v7.3h-2.4v-7c0-1.8-0.7-2.7-2.2-2.7
		c-1.3,0-2.5,0.6-2.5,2v7.7L496.5,306.7L496.5,306.7z"/>
	<path d="M509.2,295.3h2.4v1.9h0.1c0.5-1.4,1.7-2.2,3.2-2.2c2.9,0,4.6,2.2,4.6,6s-1.7,6-4.6,6c-1.5,0-2.7-0.8-3.2-2.2h-0.1v6.3h-2.4
		V295.3z M517,302v-2c0-1.8-1.1-2.9-2.8-2.9c-1.5,0-2.6,0.8-2.6,2v3.9c0,1.2,1.1,2,2.6,2C515.9,304.9,517,303.8,517,302z"/>
	<path d="M529.2,304.8L529.2,304.8c-0.5,1.1-1.4,2.2-3.3,2.2c-2.4,0-3.7-1.6-3.7-4.4v-7.3h2.4v7c0,1.7,0.7,2.7,2.2,2.7
		c1.2,0,2.4-0.6,2.4-2v-7.7h2.4v11.4h-2.4L529.2,304.8L529.2,304.8z"/>
	<path d="M538.2,306.7c-1.7,0-2.5-0.9-2.5-2.5v-7h-1.8v-2h1c0.8,0,1.1-0.3,1.1-1.1v-2h2.2v3.1h2.4v2h-2.4v7.5h2.2v2H538.2z"/>
	<path d="M552.5,298.2l-1.7-3.3h-0.1v11.8h-2.4v-15.4h2.8l5,8.5l1.7,3.3h0.1v-11.8h2.4v15.4h-2.8L552.5,298.2z"/>
	<path d="M572.3,306.7c-1.3,0-1.9-0.8-2.1-1.9h-0.1c-0.4,1.4-1.7,2.2-3.3,2.2c-2.4,0-3.7-1.3-3.7-3.4c0-2.3,1.7-3.4,4.9-3.4h2.1v-1
		c0-1.4-0.7-2.2-2.4-2.2c-1.3,0-2.2,0.7-2.7,1.6l-1.4-1.3c0.7-1.3,2.1-2.2,4.3-2.2c2.9,0,4.6,1.5,4.6,4v5.7h1.2v2h-1.4L572.3,306.7
		L572.3,306.7z M570,303.3v-1.7h-2c-1.7,0-2.5,0.6-2.5,1.5v0.4c0,1,0.7,1.5,1.9,1.5C568.9,305.2,570,304.5,570,303.3z"/>
	<path d="M576,306.7v-11.4h2.4v1.9h0.1c0.5-1.2,1.3-2.2,3.1-2.2c1.5,0,2.8,0.7,3.4,2.3h0.1c0.4-1.3,1.6-2.3,3.5-2.3
		c2.3,0,3.6,1.6,3.6,4.4v7.3h-2.4v-7c0-1.8-0.7-2.7-2.1-2.7c-1.2,0-2.3,0.6-2.3,2v7.7H583v-7c0-1.8-0.7-2.7-2.1-2.7
		c-1.2,0-2.4,0.6-2.4,2v7.7L576,306.7L576,306.7z"/>
	<path d="M594.6,301c0-3.7,2-6,5.3-6c3.4,0,5.1,2.5,5.1,5.7v0.9h-7.9v0.4c0,1.8,1.1,3,3,3c1.4,0,2.4-0.7,3-1.7l1.4,1.4
		c-0.9,1.4-2.5,2.3-4.7,2.3C596.6,307,594.6,304.7,594.6,301z M597.1,299.9v0.2h5.3v-0.2c0-1.8-1-2.9-2.6-2.9
		C598.3,296.9,597.1,298.1,597.1,299.9z"/>
</g>
<g class="st1">
	<path d="M572.1,177.4c0-5.2,2.6-7.9,6.6-7.9s6.6,2.8,6.6,7.9c0,5.2-2.6,7.9-6.6,7.9S572.1,182.5,572.1,177.4z M582.7,178.6v-2.4
		c0-2.8-1.6-4.5-4-4.5s-4,1.7-4,4.5v2.4c0,2.8,1.6,4.5,4,4.5S582.7,181.4,582.7,178.6z"/>
	<path d="M595.2,183.1L595.2,183.1c-0.5,1.1-1.4,2.2-3.3,2.2c-2.4,0-3.7-1.6-3.7-4.4v-7.3h2.4v7c0,1.7,0.7,2.7,2.2,2.7
		c1.2,0,2.4-0.6,2.4-2v-7.7h2.4V185h-2.4L595.2,183.1L595.2,183.1z"/>
	<path d="M604.2,185c-1.7,0-2.5-0.9-2.5-2.5v-7h-1.8v-2h1c0.8,0,1.1-0.3,1.1-1.1v-2h2.2v3.1h2.4v2h-2.4v7.5h2.2v2H604.2z"/>
	<path d="M609.1,173.6h2.4v1.9h0.1c0.5-1.4,1.7-2.2,3.2-2.2c2.9,0,4.6,2.2,4.6,6s-1.7,6-4.6,6c-1.5,0-2.7-0.8-3.2-2.2h-0.1v6.3h-2.4
		V173.6z M616.8,180.3v-2c0-1.8-1.1-2.9-2.8-2.9c-1.5,0-2.6,0.8-2.6,2v3.9c0,1.2,1.1,2,2.6,2C615.7,183.2,616.8,182.1,616.8,180.3z"
		/>
	<path d="M629,183.1L629,183.1c-0.5,1.1-1.4,2.2-3.3,2.2c-2.4,0-3.7-1.6-3.7-4.4v-7.3h2.4v7c0,1.7,0.7,2.7,2.2,2.7
		c1.2,0,2.4-0.6,2.4-2v-7.7h2.4V185H629L629,183.1L629,183.1z"/>
	<path d="M638,185c-1.7,0-2.5-0.9-2.5-2.5v-7h-1.8v-2h1c0.8,0,1.1-0.3,1.1-1.1v-2h2.2v3.1h2.4v2H638v7.5h2.2v2H638z"/>
	<path d="M652.4,176.5l-1.7-3.3h-0.1V185h-2.4v-15.4h2.8l5,8.5l1.7,3.3h0.1v-11.8h2.4V185h-2.8L652.4,176.5z"/>
	<path d="M672.2,185c-1.3,0-1.9-0.8-2.1-1.9H670c-0.4,1.4-1.7,2.2-3.3,2.2c-2.4,0-3.7-1.3-3.7-3.4c0-2.3,1.7-3.4,4.9-3.4h2.1v-1
		c0-1.4-0.7-2.2-2.4-2.2c-1.3,0-2.2,0.7-2.7,1.6l-1.4-1.3c0.7-1.3,2.1-2.2,4.3-2.2c2.9,0,4.6,1.5,4.6,4v5.7h1.2v2h-1.4L672.2,185
		L672.2,185z M669.9,181.7V180h-2c-1.7,0-2.5,0.6-2.5,1.5v0.4c0,1,0.7,1.5,1.9,1.5C668.8,183.5,669.9,182.8,669.9,181.7z"/>
	<path d="M675.9,185v-11.4h2.4v1.9h0.1c0.5-1.2,1.3-2.2,3.1-2.2c1.5,0,2.8,0.7,3.4,2.3h0.1c0.4-1.3,1.6-2.3,3.5-2.3
		c2.3,0,3.6,1.6,3.6,4.4v7.3h-2.4v-7c0-1.8-0.7-2.7-2.1-2.7c-1.2,0-2.3,0.6-2.3,2v7.7h-2.4v-7c0-1.8-0.7-2.7-2.1-2.7
		c-1.2,0-2.4,0.6-2.4,2v7.7H675.9L675.9,185z"/>
	<path d="M694.5,179.3c0-3.7,2-6,5.3-6c3.4,0,5.1,2.5,5.1,5.7v0.9H697v0.4c0,1.8,1.1,3,3,3c1.4,0,2.4-0.7,3-1.7l1.4,1.4
		c-0.9,1.4-2.5,2.3-4.7,2.3C696.5,185.3,694.5,183,694.5,179.3z M697,178.2v0.2h5.3v-0.2c0-1.8-1-2.9-2.6-2.9
		C698.1,175.2,697,176.4,697,178.2z"/>
</g>
<g class="st1">
	<path d="M572.1,238.2c0-5.2,2.6-7.9,6.6-7.9s6.6,2.8,6.6,7.9c0,5.2-2.6,7.9-6.6,7.9C574.7,246.2,572.1,243.4,572.1,238.2z
		 M582.7,239.4V237c0-2.8-1.6-4.5-4-4.5s-4,1.7-4,4.5v2.4c0,2.8,1.6,4.5,4,4.5S582.7,242.2,582.7,239.4z"/>
	<path d="M595.2,244L595.2,244c-0.5,1.1-1.4,2.2-3.3,2.2c-2.4,0-3.7-1.6-3.7-4.4v-7.3h2.4v7c0,1.7,0.7,2.7,2.2,2.7
		c1.2,0,2.4-0.6,2.4-2v-7.7h2.4v11.4h-2.4L595.2,244L595.2,244z"/>
	<path d="M604.2,245.9c-1.7,0-2.5-0.9-2.5-2.5v-7h-1.8v-2h1c0.8,0,1.1-0.3,1.1-1.1v-2h2.2v3.1h2.4v2h-2.4v7.5h2.2v2H604.2z"/>
	<path d="M609.1,234.4h2.4v1.9h0.1c0.5-1.4,1.7-2.2,3.2-2.2c2.9,0,4.6,2.2,4.6,6s-1.7,6-4.6,6c-1.5,0-2.7-0.8-3.2-2.2h-0.1v6.3h-2.4
		V234.4z M616.8,241.2v-2c0-1.8-1.1-2.9-2.8-2.9c-1.5,0-2.6,0.8-2.6,2v3.9c0,1.2,1.1,2,2.6,2C615.7,244.1,616.8,242.9,616.8,241.2z"
		/>
	<path d="M629,244L629,244c-0.5,1.1-1.4,2.2-3.3,2.2c-2.4,0-3.7-1.6-3.7-4.4v-7.3h2.4v7c0,1.7,0.7,2.7,2.2,2.7c1.2,0,2.4-0.6,2.4-2
		v-7.7h2.4v11.4H629L629,244L629,244z"/>
	<path d="M638,245.9c-1.7,0-2.5-0.9-2.5-2.5v-7h-1.8v-2h1c0.8,0,1.1-0.3,1.1-1.1v-2h2.2v3.1h2.4v2H638v7.5h2.2v2H638z"/>
	<path d="M652.4,237.4l-1.7-3.3h-0.1v11.8h-2.4v-15.4h2.8l5,8.5l1.7,3.3h0.1v-11.8h2.4v15.4h-2.8L652.4,237.4z"/>
	<path d="M672.2,245.9c-1.3,0-1.9-0.8-2.1-1.9H670c-0.4,1.4-1.7,2.2-3.3,2.2c-2.4,0-3.7-1.3-3.7-3.4c0-2.3,1.7-3.4,4.9-3.4h2.1v-1
		c0-1.4-0.7-2.2-2.4-2.2c-1.3,0-2.2,0.7-2.7,1.6l-1.4-1.3c0.7-1.3,2.1-2.2,4.3-2.2c2.9,0,4.6,1.5,4.6,4v5.7h1.2v2h-1.4L672.2,245.9
		L672.2,245.9z M669.9,242.5v-1.7h-2c-1.7,0-2.5,0.6-2.5,1.5v0.4c0,1,0.7,1.5,1.9,1.5C668.8,244.3,669.9,243.6,669.9,242.5z"/>
	<path d="M675.9,245.9v-11.4h2.4v1.9h0.1c0.5-1.2,1.3-2.2,3.1-2.2c1.5,0,2.8,0.7,3.4,2.3h0.1c0.4-1.3,1.6-2.3,3.5-2.3
		c2.3,0,3.6,1.6,3.6,4.4v7.3h-2.4v-7c0-1.8-0.7-2.7-2.1-2.7c-1.2,0-2.3,0.6-2.3,2v7.7h-2.4v-7c0-1.8-0.7-2.7-2.1-2.7
		c-1.2,0-2.4,0.6-2.4,2v7.7L675.9,245.9L675.9,245.9z"/>
	<path d="M694.5,240.2c0-3.7,2-6,5.3-6c3.4,0,5.1,2.5,5.1,5.7v0.9H697v0.4c0,1.8,1.1,3,3,3c1.4,0,2.4-0.7,3-1.7l1.4,1.4
		c-0.9,1.4-2.5,2.3-4.7,2.3C696.5,246.2,694.5,243.8,694.5,240.2z M697,239v0.2h5.3V239c0-1.8-1-2.9-2.6-2.9
		C698.1,236.1,697,237.3,697,239z"/>
</g>
<circle class="st2" cx="725.8" cy="178.5" r="7.5"/>
<circle class="st3" cx="464.9" cy="299.9" r="7.5"/>
<circle class="st4" cx="464.9" cy="390.8" r="7.5"/>
<circle class="st3" cx="725.8" cy="238.4" r="7.5"/>
<line class="st5" x1="464.9" y1="124.4" x2="725.8" y2="124.4"/>
<g>
	<line class="st6" x1="486.8" y1="342.5" x2="704.9" y2="342.5"/>
</g>
<path class="st3" d="M558,328.8L558,328.8c2.8,0,5.2,2.3,5.2,5.2v17.1c0,2.8-2.3,5.1-5.2,5.1l0,0c-2.8,0-5.2-2.3-5.2-5.1V334
	C552.8,331.1,555.1,328.8,558,328.8z"/>
<path class="st0" d="M585.4,450.9H490c-1.8,0-3.2-1.4-3.2-3.2v-24.9c0-1.8,1.4-3.2,3.2-3.2h95.4c1.8,0,3.2,1.4,3.2,3.2v24.9
	C588.7,449.4,587.2,450.9,585.4,450.9z"/>
<g>
	<path d="M494.7,434.8c0-4.9,1.6-7.7,5.3-7.7s5.3,2.8,5.3,7.7s-1.6,7.7-5.3,7.7S494.7,439.7,494.7,434.8z M503,436.1v-2.5
		c0-2.8-0.9-4.6-3.1-4.6c-2.2,0-3.1,1.9-3.1,4.6v2.5c0,2.8,0.9,4.6,3.1,4.6S503,438.9,503,436.1z"/>
	<path d="M507.9,441.2v-0.3c0-0.8,0.4-1.3,1.4-1.3s1.4,0.6,1.4,1.3v0.3c0,0.8-0.4,1.3-1.4,1.3S507.9,442,507.9,441.2z"/>
	<path d="M523.7,442.3h-9.9v-2.1l4.8-4.4c1.5-1.3,2.4-2.7,2.4-4.1v-0.3c0-1.5-0.9-2.5-2.6-2.5c-1.8,0-2.6,1-3,2.4l-1.8-0.7
		c0.6-1.8,2-3.6,4.9-3.6c3,0,4.7,1.8,4.7,4.4c0,2.4-1.5,4-3.4,5.7l-3.7,3.3h7.6V442.3z"/>
	<path d="M535.9,429.2h-6.6l-0.4,5.5h0.2c0.7-1.1,1.5-1.8,3.1-1.8c2.6,0,4.5,1.7,4.5,4.6c0,2.9-1.9,5-5.2,5c-2.6,0-3.9-1.3-4.8-2.6
		l1.5-1.2c0.7,1.2,1.5,2,3.3,2c1.9,0,3-1.1,3-3v-0.2c0-1.9-1-3-3-3c-1.3,0-2,0.6-2.6,1.2l-1.7-0.2l0.5-8.3h8.2V429.2z"/>
</g>
</svg>
