<?xml version="1.0" encoding="utf-8"?>
<!-- Generator: Adobe Illustrator 25.3.1, SVG Export Plug-In . SVG Version: 6.00 Build 0)  -->
<svg version="1.1" id="Layer_1" xmlns="http://www.w3.org/2000/svg" xmlns:xlink="http://www.w3.org/1999/xlink" x="0px" y="0px"
	 viewBox="0 0 1634.5 726.7" style="enable-background:new 0 0 1634.5 726.7;" xml:space="preserve">
<style type="text/css">
	.st0{fill:none;stroke:#000000;stroke-width:4;stroke-miterlimit:10;}
	.st1{fill:none;stroke:url(#SVGID_1_);stroke-width:4;stroke-miterlimit:10;}
	.st2{fill:none;stroke:url(#SVGID_2_);stroke-width:4;stroke-miterlimit:10;stroke-dasharray:6.1556,6.1556;}
	.st3{fill:none;stroke:url(#SVGID_3_);stroke-width:4;stroke-miterlimit:10;}
	.st4{fill:#FFFFFF;stroke:#000000;stroke-width:4;stroke-miterlimit:10;}
	.st5{enable-background:new    ;}
	.st6{fill:#2B5DB7;stroke:#000000;stroke-width:4;stroke-miterlimit:10;}
	.st7{fill:#BA2A2A;stroke:#000000;stroke-width:4;stroke-miterlimit:10;}
	.st8{fill:none;stroke:url(#SVGID_4_);stroke-width:4;stroke-miterlimit:10;}
	.st9{fill:none;stroke:url(#SVGID_5_);stroke-width:4;stroke-miterlimit:10;stroke-dasharray:6.2717,6.2717;}
	.st10{fill:none;stroke:url(#SVGID_6_);stroke-width:4;stroke-miterlimit:10;}
	.st11{fill:none;stroke:url(#SVGID_7_);stroke-width:4;stroke-miterlimit:10;}
	.st12{fill:none;stroke:url(#SVGID_8_);stroke-width:4;stroke-miterlimit:10;stroke-dasharray:6.2717,6.2717;}
	.st13{fill:none;stroke:url(#SVGID_9_);stroke-width:4;stroke-miterlimit:10;}
</style>
<line class="st0" x1="817.2" y1="383.1" x2="817.2" y2="506"/>
<g>
	<g>
		
			<linearGradient id="SVGID_1_" gradientUnits="userSpaceOnUse" x1="817.2" y1="161.0239" x2="817.2" y2="38.0673" gradientTransform="matrix(1 0 0 -1 0 726)">
			<stop  offset="0" style="stop-color:#000000"/>
			<stop  offset="1" style="stop-color:#000000;stop-opacity:0"/>
		</linearGradient>
		<line class="st1" x1="817.2" y1="565" x2="817.2" y2="568"/>
		
			<linearGradient id="SVGID_2_" gradientUnits="userSpaceOnUse" x1="817.2" y1="161.0239" x2="817.2" y2="38.0673" gradientTransform="matrix(1 0 0 -1 0 726)">
			<stop  offset="0" style="stop-color:#000000"/>
			<stop  offset="1" style="stop-color:#000000;stop-opacity:0"/>
		</linearGradient>
		<line class="st2" x1="817.2" y1="574.1" x2="817.2" y2="681.9"/>
		
			<linearGradient id="SVGID_3_" gradientUnits="userSpaceOnUse" x1="817.2" y1="161.0239" x2="817.2" y2="38.0673" gradientTransform="matrix(1 0 0 -1 0 726)">
			<stop  offset="0" style="stop-color:#000000"/>
			<stop  offset="1" style="stop-color:#000000;stop-opacity:0"/>
		</linearGradient>
		<line class="st3" x1="817.2" y1="684.9" x2="817.2" y2="687.9"/>
	</g>
</g>
<path class="st4" d="M901.5,565H733c-2.2,0-4-1.8-4-4v-51c0-2.2,1.8-4,4-4h168.5c2.2,0,4,1.8,4,4v51
	C905.5,563.2,903.7,565,901.5,565z"/>
<g class="st5">
	<path d="M764.3,533.6l-1.7-3.3h-0.1v11.8h-2.4v-15.4h2.8l5,8.5l1.7,3.3h0.1v-11.8h2.4v15.4h-2.8L764.3,533.6z"/>
	<path d="M774.9,536.4c0-3.7,2.1-6,5.3-6s5.3,2.3,5.3,6s-2.1,6-5.3,6S774.9,540,774.9,536.4z M782.9,537.3v-1.9c0-2-1.1-3-2.7-3
		c-1.6,0-2.7,1-2.7,3v1.9c0,2,1.1,3,2.7,3C781.8,540.4,782.9,539.3,782.9,537.3z"/>
	<path d="M795.3,540.2h-0.1c-0.5,1.3-1.7,2.2-3.2,2.2c-2.9,0-4.6-2.2-4.6-6s1.7-6,4.6-6c1.5,0,2.7,0.8,3.2,2.2h0.1v-6.7h2.4v16.3
		h-2.4V540.2z M795.3,538.3v-3.9c0-1.2-1.1-2-2.6-2c-1.7,0-2.8,1.2-2.8,2.9v2c0,1.8,1.1,2.9,2.8,2.9
		C794.1,540.3,795.3,539.5,795.3,538.3z"/>
	<path d="M800.3,536.4c0-3.7,2-6,5.3-6c3.4,0,5.1,2.5,5.1,5.7v0.9h-7.9v0.4c0,1.8,1.1,3,3,3c1.4,0,2.4-0.7,3-1.7l1.4,1.4
		c-0.9,1.4-2.5,2.3-4.7,2.3C802.3,542.3,800.3,540,800.3,536.4z M802.8,535.2v0.2h5.3v-0.2c0-1.8-1-2.9-2.6-2.9
		C803.9,532.2,802.8,533.5,802.8,535.2z"/>
	<path d="M822.8,533.6l-1.7-3.3h-0.1v11.8h-2.4v-15.4h2.8l5,8.5l1.7,3.3h0.1v-11.8h2.4v15.4h-2.8L822.8,533.6z"/>
	<path d="M842.6,542.1c-1.3,0-1.9-0.8-2.1-1.9h-0.1c-0.4,1.4-1.7,2.2-3.3,2.2c-2.4,0-3.7-1.3-3.7-3.4c0-2.3,1.7-3.4,4.9-3.4h2.1v-1
		c0-1.4-0.7-2.2-2.4-2.2c-1.3,0-2.2,0.7-2.7,1.6l-1.4-1.3c0.7-1.3,2.1-2.2,4.3-2.2c2.9,0,4.6,1.5,4.6,4v5.7h1.2v2H842.6z
		 M840.4,538.7V537h-2c-1.7,0-2.5,0.6-2.5,1.5v0.4c0,1,0.7,1.5,1.9,1.5C839.3,540.5,840.4,539.8,840.4,538.7z"/>
	<path d="M846.3,542.1v-11.4h2.4v1.9h0.1c0.5-1.2,1.3-2.2,3.1-2.2c1.5,0,2.8,0.7,3.4,2.3h0.1c0.4-1.3,1.6-2.3,3.5-2.3
		c2.3,0,3.6,1.6,3.6,4.4v7.3H860v-7c0-1.8-0.7-2.7-2.1-2.7c-1.2,0-2.3,0.6-2.3,2v7.7h-2.4v-7c0-1.8-0.7-2.7-2.1-2.7
		c-1.2,0-2.4,0.6-2.4,2v7.7H846.3z"/>
	<path d="M865,536.4c0-3.7,2-6,5.3-6c3.4,0,5.1,2.5,5.1,5.7v0.9h-7.9v0.4c0,1.8,1.1,3,3,3c1.4,0,2.4-0.7,3-1.7l1.4,1.4
		c-0.9,1.4-2.5,2.3-4.7,2.3C867,542.3,865,540,865,536.4z M867.4,535.2v0.2h5.3v-0.2c0-1.8-1-2.9-2.6-2.9
		C868.6,532.2,867.4,533.5,867.4,535.2z"/>
</g>
<circle class="st6" cx="817.2" cy="506" r="7.5"/>
<circle class="st7" cx="817.2" cy="565" r="7.5"/>
<g>
	<g>
		
			<linearGradient id="SVGID_4_" gradientUnits="userSpaceOnUse" x1="776.5606" y1="685.8" x2="728.2261" y2="685.8" gradientTransform="matrix(1 0 0 -1 0 726)">
			<stop  offset="0" style="stop-color:#000000"/>
			<stop  offset="1" style="stop-color:#000000;stop-opacity:0"/>
		</linearGradient>
		<line class="st8" x1="730.1" y1="38.8" x2="731.3" y2="41.6"/>
		
			<linearGradient id="SVGID_5_" gradientUnits="userSpaceOnUse" x1="776.5606" y1="634.05" x2="728.2261" y2="634.05" gradientTransform="matrix(1 0 0 -1 0 726)">
			<stop  offset="0" style="stop-color:#000000"/>
			<stop  offset="1" style="stop-color:#000000;stop-opacity:0"/>
		</linearGradient>
		<line class="st9" x1="733.7" y1="47.3" x2="772.3" y2="136.6"/>
		
			<linearGradient id="SVGID_6_" gradientUnits="userSpaceOnUse" x1="776.5606" y1="585.2" x2="728.2261" y2="585.2" gradientTransform="matrix(1 0 0 -1 0 726)">
			<stop  offset="0" style="stop-color:#000000"/>
			<stop  offset="1" style="stop-color:#000000;stop-opacity:0"/>
		</linearGradient>
		<line class="st10" x1="773.5" y1="139.4" x2="774.7" y2="142.2"/>
	</g>
</g>
<g>
	<g>
		
			<linearGradient id="SVGID_7_" gradientUnits="userSpaceOnUse" x1="857.9321" y1="585.2" x2="906.2665" y2="585.2" gradientTransform="matrix(1 0 0 -1 0 726)">
			<stop  offset="0" style="stop-color:#000000"/>
			<stop  offset="1" style="stop-color:#000000;stop-opacity:0"/>
		</linearGradient>
		<line class="st11" x1="859.8" y1="142.2" x2="861" y2="139.4"/>
		
			<linearGradient id="SVGID_8_" gradientUnits="userSpaceOnUse" x1="857.9321" y1="636.95" x2="906.2665" y2="636.95" gradientTransform="matrix(1 0 0 -1 0 726)">
			<stop  offset="0" style="stop-color:#000000"/>
			<stop  offset="1" style="stop-color:#000000;stop-opacity:0"/>
		</linearGradient>
		<line class="st12" x1="863.4" y1="133.7" x2="902" y2="44.4"/>
		
			<linearGradient id="SVGID_9_" gradientUnits="userSpaceOnUse" x1="857.9321" y1="685.8" x2="906.2665" y2="685.8" gradientTransform="matrix(1 0 0 -1 0 726)">
			<stop  offset="0" style="stop-color:#000000"/>
			<stop  offset="1" style="stop-color:#000000;stop-opacity:0"/>
		</linearGradient>
		<line class="st13" x1="903.2" y1="41.6" x2="904.4" y2="38.8"/>
	</g>
</g>
<line class="st0" x1="817.2" y1="201.2" x2="817.2" y2="324.1"/>
<path class="st4" d="M901.5,201.2H733c-2.2,0-4-1.8-4-4v-51c0-2.2,1.8-4,4-4h168.5c2.2,0,4,1.8,4,4v51
	C905.5,199.4,903.7,201.2,901.5,201.2z"/>
<g class="st5">
	<path d="M764.3,169.8l-1.7-3.3h-0.1v11.8h-2.4v-15.4h2.8l5,8.5l1.7,3.3h0.1v-11.8h2.4v15.4h-2.8L764.3,169.8z"/>
	<path d="M774.9,172.5c0-3.7,2.1-6,5.3-6s5.3,2.3,5.3,6s-2.1,6-5.3,6S774.9,176.2,774.9,172.5z M782.9,173.5v-1.9c0-2-1.1-3-2.7-3
		c-1.6,0-2.7,1-2.7,3v1.9c0,2,1.1,3,2.7,3C781.8,176.5,782.9,175.5,782.9,173.5z"/>
	<path d="M795.3,176.4h-0.1c-0.5,1.3-1.7,2.2-3.2,2.2c-2.9,0-4.6-2.2-4.6-6s1.7-6,4.6-6c1.5,0,2.7,0.8,3.2,2.2h0.1V162h2.4v16.3
		h-2.4V176.4z M795.3,174.5v-3.9c0-1.2-1.1-2-2.6-2c-1.7,0-2.8,1.2-2.8,2.9v2c0,1.8,1.1,2.9,2.8,2.9
		C794.1,176.4,795.3,175.7,795.3,174.5z"/>
	<path d="M800.3,172.5c0-3.7,2-6,5.3-6c3.4,0,5.1,2.5,5.1,5.7v0.9h-7.9v0.4c0,1.8,1.1,3,3,3c1.4,0,2.4-0.7,3-1.7l1.4,1.4
		c-0.9,1.4-2.5,2.3-4.7,2.3C802.3,178.5,800.3,176.2,800.3,172.5z M802.8,171.4v0.2h5.3v-0.2c0-1.8-1-2.9-2.6-2.9
		C803.9,168.4,802.8,169.6,802.8,171.4z"/>
	<path d="M822.8,169.8l-1.7-3.3h-0.1v11.8h-2.4v-15.4h2.8l5,8.5l1.7,3.3h0.1v-11.8h2.4v15.4h-2.8L822.8,169.8z"/>
	<path d="M842.6,178.2c-1.3,0-1.9-0.8-2.1-1.9h-0.1c-0.4,1.4-1.7,2.2-3.3,2.2c-2.4,0-3.7-1.3-3.7-3.4c0-2.3,1.7-3.4,4.9-3.4h2.1v-1
		c0-1.4-0.7-2.2-2.4-2.2c-1.3,0-2.2,0.7-2.7,1.6l-1.4-1.3c0.7-1.3,2.1-2.2,4.3-2.2c2.9,0,4.6,1.5,4.6,4v5.7h1.2v2H842.6z
		 M840.4,174.9v-1.7h-2c-1.7,0-2.5,0.6-2.5,1.5v0.4c0,1,0.7,1.5,1.9,1.5C839.3,176.7,840.4,176,840.4,174.9z"/>
	<path d="M846.3,178.2v-11.4h2.4v1.9h0.1c0.5-1.2,1.3-2.2,3.1-2.2c1.5,0,2.8,0.7,3.4,2.3h0.1c0.4-1.3,1.6-2.3,3.5-2.3
		c2.3,0,3.6,1.6,3.6,4.4v7.3H860v-7c0-1.8-0.7-2.7-2.1-2.7c-1.2,0-2.3,0.6-2.3,2v7.7h-2.4v-7c0-1.8-0.7-2.7-2.1-2.7
		c-1.2,0-2.4,0.6-2.4,2v7.7H846.3z"/>
	<path d="M865,172.5c0-3.7,2-6,5.3-6c3.4,0,5.1,2.5,5.1,5.7v0.9h-7.9v0.4c0,1.8,1.1,3,3,3c1.4,0,2.4-0.7,3-1.7l1.4,1.4
		c-0.9,1.4-2.5,2.3-4.7,2.3C867,178.5,865,176.2,865,172.5z M867.4,171.4v0.2h5.3v-0.2c0-1.8-1-2.9-2.6-2.9
		C868.6,168.4,867.4,169.6,867.4,171.4z"/>
</g>
<circle class="st6" cx="774.7" cy="142.2" r="7.5"/>
<circle class="st6" cx="859.8" cy="142.2" r="7.5"/>
<circle class="st7" cx="817.2" cy="201.2" r="7.5"/>
<path class="st4" d="M901.5,383.1H733c-2.2,0-4-1.8-4-4v-51c0-2.2,1.8-4,4-4h168.5c2.2,0,4,1.8,4,4v51
	C905.5,381.3,903.7,383.1,901.5,383.1z"/>
<g class="st5">
	<path d="M764.3,351.7l-1.7-3.3h-0.1v11.8h-2.4v-15.4h2.8l5,8.5l1.7,3.3h0.1v-11.8h2.4v15.4h-2.8L764.3,351.7z"/>
	<path d="M774.9,354.4c0-3.7,2.1-6,5.3-6s5.3,2.3,5.3,6s-2.1,6-5.3,6S774.9,358.1,774.9,354.4z M782.9,355.4v-1.9c0-2-1.1-3-2.7-3
		c-1.6,0-2.7,1-2.7,3v1.9c0,2,1.1,3,2.7,3C781.8,358.4,782.9,357.4,782.9,355.4z"/>
	<path d="M795.3,358.3h-0.1c-0.5,1.3-1.7,2.2-3.2,2.2c-2.9,0-4.6-2.2-4.6-6s1.7-6,4.6-6c1.5,0,2.7,0.8,3.2,2.2h0.1v-6.7h2.4v16.3
		h-2.4V358.3z M795.3,356.4v-3.9c0-1.2-1.1-2-2.6-2c-1.7,0-2.8,1.2-2.8,2.9v2c0,1.8,1.1,2.9,2.8,2.9
		C794.1,358.4,795.3,357.6,795.3,356.4z"/>
	<path d="M800.3,354.4c0-3.7,2-6,5.3-6c3.4,0,5.1,2.5,5.1,5.7v0.9h-7.9v0.4c0,1.8,1.1,3,3,3c1.4,0,2.4-0.7,3-1.7l1.4,1.4
		c-0.9,1.4-2.5,2.3-4.7,2.3C802.3,360.4,800.3,358.1,800.3,354.4z M802.8,353.3v0.2h5.3v-0.2c0-1.8-1-2.9-2.6-2.9
		C803.9,350.3,802.8,351.6,802.8,353.3z"/>
	<path d="M822.8,351.7l-1.7-3.3h-0.1v11.8h-2.4v-15.4h2.8l5,8.5l1.7,3.3h0.1v-11.8h2.4v15.4h-2.8L822.8,351.7z"/>
	<path d="M842.6,360.2c-1.3,0-1.9-0.8-2.1-1.9h-0.1c-0.4,1.4-1.7,2.2-3.3,2.2c-2.4,0-3.7-1.3-3.7-3.4c0-2.3,1.7-3.4,4.9-3.4h2.1v-1
		c0-1.4-0.7-2.2-2.4-2.2c-1.3,0-2.2,0.7-2.7,1.6l-1.4-1.3c0.7-1.3,2.1-2.2,4.3-2.2c2.9,0,4.6,1.5,4.6,4v5.7h1.2v2H842.6z
		 M840.4,356.8v-1.7h-2c-1.7,0-2.5,0.6-2.5,1.5v0.4c0,1,0.7,1.5,1.9,1.5C839.3,358.6,840.4,357.9,840.4,356.8z"/>
	<path d="M846.3,360.2v-11.4h2.4v1.9h0.1c0.5-1.2,1.3-2.2,3.1-2.2c1.5,0,2.8,0.7,3.4,2.3h0.1c0.4-1.3,1.6-2.3,3.5-2.3
		c2.3,0,3.6,1.6,3.6,4.4v7.3H860v-7c0-1.8-0.7-2.7-2.1-2.7c-1.2,0-2.3,0.6-2.3,2v7.7h-2.4v-7c0-1.8-0.7-2.7-2.1-2.7
		c-1.2,0-2.4,0.6-2.4,2v7.7H846.3z"/>
	<path d="M865,354.4c0-3.7,2-6,5.3-6c3.4,0,5.1,2.5,5.1,5.7v0.9h-7.9v0.4c0,1.8,1.1,3,3,3c1.4,0,2.4-0.7,3-1.7l1.4,1.4
		c-0.9,1.4-2.5,2.3-4.7,2.3C867,360.4,865,358.1,865,354.4z M867.4,353.3v0.2h5.3v-0.2c0-1.8-1-2.9-2.6-2.9
		C868.6,350.3,867.4,351.6,867.4,353.3z"/>
</g>
<circle class="st6" cx="817.2" cy="324.1" r="7.5"/>
<circle class="st7" cx="817.2" cy="383.1" r="7.5"/>
</svg>
