<?xml version="1.0" encoding="utf-8"?>
<!-- Generator: Adobe Illustrator 25.3.1, SVG Export Plug-In . SVG Version: 6.00 Build 0)  -->
<svg version="1.1" id="Layer_1" xmlns="http://www.w3.org/2000/svg" xmlns:xlink="http://www.w3.org/1999/xlink" x="0px" y="0px"
	 viewBox="0 0 1634.5 726.7" style="enable-background:new 0 0 1634.5 726.7;" xml:space="preserve">
<style type="text/css">
	.st0{fill:none;stroke:#000000;stroke-width:4;stroke-miterlimit:10;}
	.st1{fill:#FFFFFF;stroke:#000000;stroke-width:4;stroke-miterlimit:10;}
	.st2{enable-background:new    ;}
	.st3{fill:#BA2A2A;stroke:#000000;stroke-width:4;stroke-miterlimit:10;}
	.st4{fill:#2B5DB7;stroke:#000000;stroke-width:4;stroke-miterlimit:10;}
	.st5{fill:#2BB735;stroke:#000000;stroke-width:4;stroke-miterlimit:10;}
	.st6{fill:none;stroke:url(#SVGID_1_);stroke-width:4;stroke-miterlimit:10;stroke-dasharray:6;}
</style>
<line class="st0" x1="309.3" y1="151" x2="519.6" y2="446.6"/>
<path class="st1" d="M776.5,553.5H523.6c-2.2,0-4-1.8-4-4V167.2c0-2.2,1.8-4,4-4h252.9c2.2,0,4,1.8,4,4v382.3
	C780.5,551.7,778.7,553.5,776.5,553.5z"/>
<g class="st2">
	<path d="M541.3,185.8l-1.7-3.3h-0.1v11.8h-2.4v-15.4h2.8l5,8.5l1.7,3.3h0.1v-11.8h2.4v15.4h-2.8L541.3,185.8z"/>
	<path d="M551.9,188.6c0-3.7,2.1-6,5.3-6s5.3,2.3,5.3,6s-2.1,6-5.3,6S551.9,192.2,551.9,188.6z M559.9,189.5v-1.9c0-2-1.1-3-2.7-3
		c-1.6,0-2.7,1-2.7,3v1.9c0,2,1.1,3,2.7,3C558.8,192.6,559.9,191.5,559.9,189.5z"/>
	<path d="M572.3,192.4h-0.1c-0.5,1.3-1.7,2.2-3.2,2.2c-2.9,0-4.6-2.2-4.6-6s1.7-6,4.6-6c1.5,0,2.7,0.8,3.2,2.2h0.1V178h2.4v16.3
		h-2.4V192.4z M572.3,190.5v-3.9c0-1.2-1.1-2-2.6-2c-1.7,0-2.8,1.2-2.8,2.9v2c0,1.8,1.1,2.9,2.8,2.9
		C571.2,192.5,572.3,191.7,572.3,190.5z"/>
	<path d="M577.4,188.6c0-3.7,2-6,5.3-6c3.4,0,5.1,2.5,5.1,5.7v0.9h-7.9v0.4c0,1.8,1.1,3,3,3c1.4,0,2.4-0.7,3-1.7l1.4,1.4
		c-0.9,1.4-2.5,2.3-4.7,2.3C579.4,194.5,577.4,192.2,577.4,188.6z M579.9,187.4v0.2h5.3v-0.2c0-1.8-1-2.9-2.6-2.9
		C581,184.4,579.9,185.7,579.9,187.4z"/>
	<path d="M599.9,185.8l-1.7-3.3h-0.1v11.8h-2.4v-15.4h2.8l5,8.5l1.7,3.3h0.1v-11.8h2.4v15.4h-2.8L599.9,185.8z"/>
	<path d="M619.7,194.3c-1.3,0-1.9-0.8-2.1-1.9h-0.1c-0.4,1.4-1.7,2.2-3.3,2.2c-2.4,0-3.7-1.3-3.7-3.4c0-2.3,1.7-3.4,4.9-3.4h2.1v-1
		c0-1.4-0.7-2.2-2.4-2.2c-1.3,0-2.2,0.7-2.7,1.6l-1.4-1.3c0.7-1.3,2.1-2.2,4.3-2.2c2.9,0,4.6,1.5,4.6,4v5.7h1.2v2H619.7z
		 M617.4,190.9v-1.7h-2c-1.7,0-2.5,0.6-2.5,1.5v0.4c0,1,0.7,1.5,1.9,1.5C616.3,192.7,617.4,192,617.4,190.9z"/>
	<path d="M623.3,194.3v-11.4h2.4v1.9h0.1c0.5-1.2,1.3-2.2,3.1-2.2c1.5,0,2.8,0.7,3.4,2.3h0.1c0.4-1.3,1.6-2.3,3.5-2.3
		c2.3,0,3.6,1.6,3.6,4.4v7.3H637v-7c0-1.8-0.7-2.7-2.1-2.7c-1.2,0-2.3,0.6-2.3,2v7.7h-2.4v-7c0-1.8-0.7-2.7-2.1-2.7
		c-1.2,0-2.4,0.6-2.4,2v7.7H623.3z"/>
	<path d="M642,188.6c0-3.7,2-6,5.3-6c3.4,0,5.1,2.5,5.1,5.7v0.9h-7.9v0.4c0,1.8,1.1,3,3,3c1.4,0,2.4-0.7,3-1.7l1.4,1.4
		c-0.9,1.4-2.5,2.3-4.7,2.3C644,194.5,642,192.2,642,188.6z M644.5,187.4v0.2h5.3v-0.2c0-1.8-1-2.9-2.6-2.9
		C645.6,184.4,644.5,185.7,644.5,187.4z"/>
</g>
<g class="st2">
	<path d="M541.5,514.2v-2h2.1v-11.3h-2.1v-2h6.7v2h-2.1v11.3h2.1v2H541.5z"/>
	<path d="M551.2,514.2v-11.4h2.4v1.9h0.1c0.5-1.2,1.5-2.2,3.2-2.2c2.3,0,3.7,1.6,3.7,4.4v7.3h-2.4v-7c0-1.8-0.7-2.7-2.2-2.7
		c-1.3,0-2.5,0.6-2.5,2v7.7H551.2z"/>
	<path d="M563.9,502.8h2.4v1.9h0.1c0.5-1.4,1.7-2.2,3.2-2.2c2.9,0,4.6,2.2,4.6,6s-1.7,6-4.6,6c-1.5,0-2.7-0.8-3.2-2.2h-0.1v6.3h-2.4
		V502.8z M571.7,509.5v-2c0-1.8-1.1-2.9-2.8-2.9c-1.5,0-2.6,0.8-2.6,2v3.9c0,1.2,1.1,2,2.6,2C570.6,512.4,571.7,511.3,571.7,509.5z"
		/>
	<path d="M583.9,512.3L583.9,512.3c-0.5,1.1-1.4,2.2-3.3,2.2c-2.4,0-3.7-1.6-3.7-4.4v-7.3h2.4v7c0,1.7,0.7,2.7,2.2,2.7
		c1.2,0,2.4-0.6,2.4-2v-7.7h2.4v11.4h-2.4V512.3z"/>
	<path d="M592.9,514.2c-1.7,0-2.5-0.9-2.5-2.5v-7h-1.8v-2h1c0.8,0,1.1-0.3,1.1-1.1v-2h2.2v3.1h2.4v2h-2.4v7.5h2.2v2H592.9z"/>
	<path d="M607.2,505.7l-1.7-3.3h-0.1v11.8h-2.4v-15.4h2.8l5,8.5l1.7,3.3h0.1v-11.8h2.4v15.4h-2.8L607.2,505.7z"/>
	<path d="M627,514.2c-1.3,0-1.9-0.8-2.1-1.9h-0.1c-0.4,1.4-1.7,2.2-3.3,2.2c-2.4,0-3.7-1.3-3.7-3.4c0-2.3,1.7-3.4,4.9-3.4h2.1v-1
		c0-1.4-0.7-2.2-2.4-2.2c-1.3,0-2.2,0.7-2.7,1.6l-1.4-1.3c0.7-1.3,2.1-2.2,4.3-2.2c2.9,0,4.6,1.5,4.6,4v5.7h1.2v2H627z M624.7,510.8
		v-1.7h-2c-1.7,0-2.5,0.6-2.5,1.5v0.4c0,1,0.7,1.5,1.9,1.5C623.6,512.7,624.7,512,624.7,510.8z"/>
	<path d="M630.7,514.2v-11.4h2.4v1.9h0.1c0.5-1.2,1.3-2.2,3.1-2.2c1.5,0,2.8,0.7,3.4,2.3h0.1c0.4-1.3,1.6-2.3,3.5-2.3
		c2.3,0,3.6,1.6,3.6,4.4v7.3h-2.4v-7c0-1.8-0.7-2.7-2.1-2.7c-1.2,0-2.3,0.6-2.3,2v7.7h-2.4v-7c0-1.8-0.7-2.7-2.1-2.7
		c-1.2,0-2.4,0.6-2.4,2v7.7H630.7z"/>
	<path d="M649.3,508.5c0-3.7,2-6,5.3-6c3.4,0,5.1,2.5,5.1,5.7v0.9h-7.9v0.4c0,1.8,1.1,3,3,3c1.4,0,2.4-0.7,3-1.7l1.4,1.4
		c-0.9,1.4-2.5,2.3-4.7,2.3C651.3,514.5,649.3,512.2,649.3,508.5z M651.8,507.4v0.2h5.3v-0.2c0-1.8-1-2.9-2.6-2.9
		C653,504.4,651.8,505.6,651.8,507.4z"/>
</g>
<g class="st2">
	<path d="M541.5,453.4v-2h2.1V440h-2.1v-2h6.7v2h-2.1v11.3h2.1v2H541.5z"/>
	<path d="M551.2,453.4v-11.4h2.4v1.9h0.1c0.5-1.2,1.5-2.2,3.2-2.2c2.3,0,3.7,1.6,3.7,4.4v7.3h-2.4v-7c0-1.8-0.7-2.7-2.2-2.7
		c-1.3,0-2.5,0.6-2.5,2v7.7H551.2z"/>
	<path d="M563.9,441.9h2.4v1.9h0.1c0.5-1.4,1.7-2.2,3.2-2.2c2.9,0,4.6,2.2,4.6,6s-1.7,6-4.6,6c-1.5,0-2.7-0.8-3.2-2.2h-0.1v6.3h-2.4
		V441.9z M571.7,448.6v-2c0-1.8-1.1-2.9-2.8-2.9c-1.5,0-2.6,0.8-2.6,2v3.9c0,1.2,1.1,2,2.6,2C570.6,451.6,571.7,450.4,571.7,448.6z"
		/>
	<path d="M583.9,451.5L583.9,451.5c-0.5,1.1-1.4,2.2-3.3,2.2c-2.4,0-3.7-1.6-3.7-4.4v-7.3h2.4v7c0,1.7,0.7,2.7,2.2,2.7
		c1.2,0,2.4-0.6,2.4-2v-7.7h2.4v11.4h-2.4V451.5z"/>
	<path d="M592.9,453.4c-1.7,0-2.5-0.9-2.5-2.5v-7h-1.8v-2h1c0.8,0,1.1-0.3,1.1-1.1v-2h2.2v3.1h2.4v2h-2.4v7.5h2.2v2H592.9z"/>
	<path d="M607.2,444.9l-1.7-3.3h-0.1v11.8h-2.4V438h2.8l5,8.5l1.7,3.3h0.1V438h2.4v15.4h-2.8L607.2,444.9z"/>
	<path d="M627,453.4c-1.3,0-1.9-0.8-2.1-1.9h-0.1c-0.4,1.4-1.7,2.2-3.3,2.2c-2.4,0-3.7-1.3-3.7-3.4c0-2.3,1.7-3.4,4.9-3.4h2.1v-1
		c0-1.4-0.7-2.2-2.4-2.2c-1.3,0-2.2,0.7-2.7,1.6l-1.4-1.3c0.7-1.3,2.1-2.2,4.3-2.2c2.9,0,4.6,1.5,4.6,4v5.7h1.2v2H627z M624.7,450
		v-1.7h-2c-1.7,0-2.5,0.6-2.5,1.5v0.4c0,1,0.7,1.5,1.9,1.5C623.6,451.8,624.7,451.1,624.7,450z"/>
	<path d="M630.7,453.4v-11.4h2.4v1.9h0.1c0.5-1.2,1.3-2.2,3.1-2.2c1.5,0,2.8,0.7,3.4,2.3h0.1c0.4-1.3,1.6-2.3,3.5-2.3
		c2.3,0,3.6,1.6,3.6,4.4v7.3h-2.4v-7c0-1.8-0.7-2.7-2.1-2.7c-1.2,0-2.3,0.6-2.3,2v7.7h-2.4v-7c0-1.8-0.7-2.7-2.1-2.7
		c-1.2,0-2.4,0.6-2.4,2v7.7H630.7z"/>
	<path d="M649.3,447.7c0-3.7,2-6,5.3-6c3.4,0,5.1,2.5,5.1,5.7v0.9h-7.9v0.4c0,1.8,1.1,3,3,3c1.4,0,2.4-0.7,3-1.7l1.4,1.4
		c-0.9,1.4-2.5,2.3-4.7,2.3C651.3,453.6,649.3,451.3,649.3,447.7z M651.8,446.5v0.2h5.3v-0.2c0-1.8-1-2.9-2.6-2.9
		C653,443.5,651.8,444.8,651.8,446.5z"/>
</g>
<line class="st0" x1="780.5" y1="324.2" x2="1048.8" y2="385.7"/>
<g class="st2">
	<path d="M541.5,392.5v-2h2.1v-11.3h-2.1v-2h6.7v2h-2.1v11.3h2.1v2H541.5z"/>
	<path d="M551.2,392.5v-11.4h2.4v1.9h0.1c0.5-1.2,1.5-2.2,3.2-2.2c2.3,0,3.7,1.6,3.7,4.4v7.3h-2.4v-7c0-1.8-0.7-2.7-2.2-2.7
		c-1.3,0-2.5,0.6-2.5,2v7.7H551.2z"/>
	<path d="M563.9,381.1h2.4v1.9h0.1c0.5-1.4,1.7-2.2,3.2-2.2c2.9,0,4.6,2.2,4.6,6c0,3.8-1.7,6-4.6,6c-1.5,0-2.7-0.8-3.2-2.2h-0.1v6.3
		h-2.4V381.1z M571.7,387.8v-2c0-1.8-1.1-2.9-2.8-2.9c-1.5,0-2.6,0.8-2.6,2v3.9c0,1.2,1.1,2,2.6,2
		C570.6,390.7,571.7,389.6,571.7,387.8z"/>
	<path d="M583.9,390.6L583.9,390.6c-0.5,1.1-1.4,2.2-3.3,2.2c-2.4,0-3.7-1.6-3.7-4.4v-7.3h2.4v7c0,1.7,0.7,2.7,2.2,2.7
		c1.2,0,2.4-0.6,2.4-2v-7.7h2.4v11.4h-2.4V390.6z"/>
	<path d="M592.9,392.5c-1.7,0-2.5-0.9-2.5-2.5v-7h-1.8v-2h1c0.8,0,1.1-0.3,1.1-1.1v-2h2.2v3.1h2.4v2h-2.4v7.5h2.2v2H592.9z"/>
	<path d="M607.2,384l-1.7-3.3h-0.1v11.8h-2.4v-15.4h2.8l5,8.5l1.7,3.3h0.1v-11.8h2.4v15.4h-2.8L607.2,384z"/>
	<path d="M627,392.5c-1.3,0-1.9-0.8-2.1-1.9h-0.1c-0.4,1.4-1.7,2.2-3.3,2.2c-2.4,0-3.7-1.3-3.7-3.4c0-2.3,1.7-3.4,4.9-3.4h2.1v-1
		c0-1.4-0.7-2.2-2.4-2.2c-1.3,0-2.2,0.7-2.7,1.6l-1.4-1.3c0.7-1.3,2.1-2.2,4.3-2.2c2.9,0,4.6,1.5,4.6,4v5.7h1.2v2H627z M624.7,389.1
		v-1.7h-2c-1.7,0-2.5,0.6-2.5,1.5v0.4c0,1,0.7,1.5,1.9,1.5C623.6,391,624.7,390.3,624.7,389.1z"/>
	<path d="M630.7,392.5v-11.4h2.4v1.9h0.1c0.5-1.2,1.3-2.2,3.1-2.2c1.5,0,2.8,0.7,3.4,2.3h0.1c0.4-1.3,1.6-2.3,3.5-2.3
		c2.3,0,3.6,1.6,3.6,4.4v7.3h-2.4v-7c0-1.8-0.7-2.7-2.1-2.7c-1.2,0-2.3,0.6-2.3,2v7.7h-2.4v-7c0-1.8-0.7-2.7-2.1-2.7
		c-1.2,0-2.4,0.6-2.4,2v7.7H630.7z"/>
	<path d="M649.3,386.8c0-3.7,2-6,5.3-6c3.4,0,5.1,2.5,5.1,5.7v0.9h-7.9v0.4c0,1.8,1.1,3,3,3c1.4,0,2.4-0.7,3-1.7l1.4,1.4
		c-0.9,1.4-2.5,2.3-4.7,2.3C651.3,392.8,649.3,390.5,649.3,386.8z M651.8,385.7v0.2h5.3v-0.2c0-1.8-1-2.9-2.6-2.9
		C653,382.7,651.8,383.9,651.8,385.7z"/>
</g>
<g class="st2">
	<path d="M626.8,263.2c0-5.2,2.6-7.9,6.6-7.9c4,0,6.6,2.8,6.6,7.9c0,5.2-2.6,7.9-6.6,7.9C629.4,271.1,626.8,268.3,626.8,263.2z
		 M637.4,264.4v-2.4c0-2.8-1.6-4.5-4-4.5c-2.4,0-4,1.7-4,4.5v2.4c0,2.8,1.6,4.5,4,4.5C635.8,268.9,637.4,267.2,637.4,264.4z"/>
	<path d="M649.9,268.9L649.9,268.9c-0.5,1.1-1.4,2.2-3.3,2.2c-2.4,0-3.7-1.6-3.7-4.4v-7.3h2.4v7c0,1.7,0.7,2.7,2.2,2.7
		c1.2,0,2.4-0.6,2.4-2v-7.7h2.4v11.4h-2.4V268.9z"/>
	<path d="M658.9,270.8c-1.7,0-2.5-0.9-2.5-2.5v-7h-1.8v-2h1c0.8,0,1.1-0.3,1.1-1.1v-2h2.2v3.1h2.4v2h-2.4v7.5h2.2v2H658.9z"/>
	<path d="M663.8,259.4h2.4v1.9h0.1c0.5-1.4,1.7-2.2,3.2-2.2c2.9,0,4.6,2.2,4.6,6s-1.7,6-4.6,6c-1.5,0-2.7-0.8-3.2-2.2h-0.1v6.3h-2.4
		V259.4z M671.5,266.1v-2c0-1.8-1.1-2.9-2.8-2.9c-1.5,0-2.6,0.8-2.6,2v3.9c0,1.2,1.1,2,2.6,2C670.4,269,671.5,267.9,671.5,266.1z"/>
	<path d="M683.7,268.9L683.7,268.9c-0.5,1.1-1.4,2.2-3.3,2.2c-2.4,0-3.7-1.6-3.7-4.4v-7.3h2.4v7c0,1.7,0.7,2.7,2.2,2.7
		c1.2,0,2.4-0.6,2.4-2v-7.7h2.4v11.4h-2.4V268.9z"/>
	<path d="M692.7,270.8c-1.7,0-2.5-0.9-2.5-2.5v-7h-1.8v-2h1c0.8,0,1.1-0.3,1.1-1.1v-2h2.2v3.1h2.4v2h-2.4v7.5h2.2v2H692.7z"/>
	<path d="M707.1,262.3l-1.7-3.3h-0.1v11.8h-2.4v-15.4h2.8l5,8.5l1.7,3.3h0.1v-11.8h2.4v15.4h-2.8L707.1,262.3z"/>
	<path d="M726.9,270.8c-1.3,0-1.9-0.8-2.1-1.9h-0.1c-0.4,1.4-1.7,2.2-3.3,2.2c-2.4,0-3.7-1.3-3.7-3.4c0-2.3,1.7-3.4,4.9-3.4h2.1v-1
		c0-1.4-0.7-2.2-2.4-2.2c-1.3,0-2.2,0.7-2.7,1.6l-1.4-1.3c0.7-1.3,2.1-2.2,4.3-2.2c2.9,0,4.6,1.5,4.6,4v5.7h1.2v2H726.9z
		 M724.6,267.5v-1.7h-2c-1.7,0-2.5,0.6-2.5,1.5v0.4c0,1,0.7,1.5,1.9,1.5C723.5,269.3,724.6,268.6,724.6,267.5z"/>
	<path d="M730.6,270.8v-11.4h2.4v1.9h0.1c0.5-1.2,1.3-2.2,3.1-2.2c1.5,0,2.8,0.7,3.4,2.3h0.1c0.4-1.3,1.6-2.3,3.5-2.3
		c2.3,0,3.6,1.6,3.6,4.4v7.3h-2.4v-7c0-1.8-0.7-2.7-2.1-2.7c-1.2,0-2.3,0.6-2.3,2v7.7h-2.4v-7c0-1.8-0.7-2.7-2.1-2.7
		c-1.2,0-2.4,0.6-2.4,2v7.7H730.6z"/>
	<path d="M749.2,265.1c0-3.7,2-6,5.3-6c3.4,0,5.1,2.5,5.1,5.7v0.9h-7.9v0.4c0,1.8,1.1,3,3,3c1.4,0,2.4-0.7,3-1.7l1.4,1.4
		c-0.9,1.4-2.5,2.3-4.7,2.3C751.2,271.1,749.2,268.8,749.2,265.1z M751.7,264v0.2h5.3v-0.2c0-1.8-1-2.9-2.6-2.9
		C752.8,261,751.7,262.2,751.7,264z"/>
</g>
<g class="st2">
	<path d="M626.8,324c0-5.2,2.6-7.9,6.6-7.9c4,0,6.6,2.8,6.6,7.9c0,5.2-2.6,7.9-6.6,7.9C629.4,332,626.8,329.2,626.8,324z
		 M637.4,325.2v-2.4c0-2.8-1.6-4.5-4-4.5c-2.4,0-4,1.7-4,4.5v2.4c0,2.8,1.6,4.5,4,4.5C635.8,329.7,637.4,328,637.4,325.2z"/>
	<path d="M649.9,329.8L649.9,329.8c-0.5,1.1-1.4,2.2-3.3,2.2c-2.4,0-3.7-1.6-3.7-4.4v-7.3h2.4v7c0,1.7,0.7,2.7,2.2,2.7
		c1.2,0,2.4-0.6,2.4-2v-7.7h2.4v11.4h-2.4V329.8z"/>
	<path d="M658.9,331.7c-1.7,0-2.5-0.9-2.5-2.5v-7h-1.8v-2h1c0.8,0,1.1-0.3,1.1-1.1v-2h2.2v3.1h2.4v2h-2.4v7.5h2.2v2H658.9z"/>
	<path d="M663.8,320.2h2.4v1.9h0.1c0.5-1.4,1.7-2.2,3.2-2.2c2.9,0,4.6,2.2,4.6,6s-1.7,6-4.6,6c-1.5,0-2.7-0.8-3.2-2.2h-0.1v6.3h-2.4
		V320.2z M671.5,327v-2c0-1.8-1.1-2.9-2.8-2.9c-1.5,0-2.6,0.8-2.6,2v3.9c0,1.2,1.1,2,2.6,2C670.4,329.9,671.5,328.7,671.5,327z"/>
	<path d="M683.7,329.8L683.7,329.8c-0.5,1.1-1.4,2.2-3.3,2.2c-2.4,0-3.7-1.6-3.7-4.4v-7.3h2.4v7c0,1.7,0.7,2.7,2.2,2.7
		c1.2,0,2.4-0.6,2.4-2v-7.7h2.4v11.4h-2.4V329.8z"/>
	<path d="M692.7,331.7c-1.7,0-2.5-0.9-2.5-2.5v-7h-1.8v-2h1c0.8,0,1.1-0.3,1.1-1.1v-2h2.2v3.1h2.4v2h-2.4v7.5h2.2v2H692.7z"/>
	<path d="M707.1,323.2l-1.7-3.3h-0.1v11.8h-2.4v-15.4h2.8l5,8.5l1.7,3.3h0.1v-11.8h2.4v15.4h-2.8L707.1,323.2z"/>
	<path d="M726.9,331.7c-1.3,0-1.9-0.8-2.1-1.9h-0.1c-0.4,1.4-1.7,2.2-3.3,2.2c-2.4,0-3.7-1.3-3.7-3.4c0-2.3,1.7-3.4,4.9-3.4h2.1v-1
		c0-1.4-0.7-2.2-2.4-2.2c-1.3,0-2.2,0.7-2.7,1.6l-1.4-1.3c0.7-1.3,2.1-2.2,4.3-2.2c2.9,0,4.6,1.5,4.6,4v5.7h1.2v2H726.9z
		 M724.6,328.3v-1.7h-2c-1.7,0-2.5,0.6-2.5,1.5v0.4c0,1,0.7,1.5,1.9,1.5C723.5,330.1,724.6,329.4,724.6,328.3z"/>
	<path d="M730.6,331.7v-11.4h2.4v1.9h0.1c0.5-1.2,1.3-2.2,3.1-2.2c1.5,0,2.8,0.7,3.4,2.3h0.1c0.4-1.3,1.6-2.3,3.5-2.3
		c2.3,0,3.6,1.6,3.6,4.4v7.3h-2.4v-7c0-1.8-0.7-2.7-2.1-2.7c-1.2,0-2.3,0.6-2.3,2v7.7h-2.4v-7c0-1.8-0.7-2.7-2.1-2.7
		c-1.2,0-2.4,0.6-2.4,2v7.7H730.6z"/>
	<path d="M749.2,326c0-3.7,2-6,5.3-6c3.4,0,5.1,2.5,5.1,5.7v0.9h-7.9v0.4c0,1.8,1.1,3,3,3c1.4,0,2.4-0.7,3-1.7l1.4,1.4
		c-0.9,1.4-2.5,2.3-4.7,2.3C751.2,332,749.2,329.6,749.2,326z M751.7,324.8v0.2h5.3v-0.2c0-1.8-1-2.9-2.6-2.9
		C752.8,321.9,751.7,323.1,751.7,324.8z"/>
</g>
<circle class="st3" cx="780.5" cy="264.3" r="7.5"/>
<line class="st0" x1="305.6" y1="547.7" x2="519.6" y2="507.4"/>
<line class="st0" x1="305.6" y1="607.5" x2="519.6" y2="385.7"/>
<circle class="st4" cx="519.6" cy="385.7" r="7.5"/>
<circle class="st3" cx="519.6" cy="507.4" r="7.5"/>
<circle class="st5" cx="519.6" cy="446.6" r="7.5"/>
<circle class="st4" cx="780.5" cy="324.2" r="7.5"/>
<line class="st0" x1="519.6" y1="210.2" x2="780.5" y2="210.2"/>
<path class="st1" d="M301.6,676.8H48.7c-2.2,0-4-1.8-4-4V450.6c0-2.2,1.8-4,4-4h252.9c2.2,0,4,1.8,4,4v222.3
	C305.6,675,303.8,676.8,301.6,676.8z"/>
<g class="st2">
	<path d="M66.4,469.1l-1.7-3.3h-0.1v11.8h-2.4v-15.4H65l5,8.5l1.7,3.3h0.1v-11.8h2.4v15.4h-2.8L66.4,469.1z"/>
	<path d="M77,471.9c0-3.7,2.1-6,5.3-6s5.3,2.3,5.3,6s-2.1,6-5.3,6S77,475.5,77,471.9z M85,472.9v-1.9c0-2-1.1-3-2.7-3
		c-1.6,0-2.7,1-2.7,3v1.9c0,2,1.1,3,2.7,3C83.9,475.9,85,474.9,85,472.9z"/>
	<path d="M97.4,475.7h-0.1c-0.5,1.3-1.7,2.2-3.2,2.2c-2.9,0-4.6-2.2-4.6-6s1.7-6,4.6-6c1.5,0,2.7,0.8,3.2,2.2h0.1v-6.7h2.4v16.3
		h-2.4V475.7z M97.4,473.9v-3.9c0-1.2-1.1-2-2.6-2c-1.7,0-2.8,1.2-2.8,2.9v2c0,1.8,1.1,2.9,2.8,2.9C96.2,475.8,97.4,475,97.4,473.9z
		"/>
	<path d="M102.5,471.9c0-3.7,2-6,5.3-6c3.4,0,5.1,2.5,5.1,5.7v0.9h-7.9v0.4c0,1.8,1.1,3,3,3c1.4,0,2.4-0.7,3-1.7l1.4,1.4
		c-0.9,1.4-2.5,2.3-4.7,2.3C104.5,477.9,102.5,475.5,102.5,471.9z M104.9,470.8v0.2h5.3v-0.2c0-1.8-1-2.9-2.6-2.9
		C106.1,467.8,104.9,469,104.9,470.8z"/>
	<path d="M125,469.1l-1.7-3.3h-0.1v11.8h-2.4v-15.4h2.8l5,8.5l1.7,3.3h0.1v-11.8h2.4v15.4H130L125,469.1z"/>
	<path d="M144.7,477.6c-1.3,0-1.9-0.8-2.1-1.9h-0.1c-0.4,1.4-1.7,2.2-3.3,2.2c-2.4,0-3.7-1.3-3.7-3.4c0-2.3,1.7-3.4,4.9-3.4h2.1v-1
		c0-1.4-0.7-2.2-2.4-2.2c-1.3,0-2.2,0.7-2.7,1.6l-1.4-1.3c0.7-1.3,2.1-2.2,4.3-2.2c2.9,0,4.6,1.5,4.6,4v5.7h1.2v2H144.7z
		 M142.5,474.2v-1.7h-2c-1.7,0-2.5,0.6-2.5,1.5v0.4c0,1,0.7,1.5,1.9,1.5C141.4,476.1,142.5,475.4,142.5,474.2z"/>
	<path d="M148.4,477.6v-11.4h2.4v1.9h0.1c0.5-1.2,1.3-2.2,3.1-2.2c1.5,0,2.8,0.7,3.4,2.3h0.1c0.4-1.3,1.6-2.3,3.5-2.3
		c2.3,0,3.6,1.6,3.6,4.4v7.3h-2.4v-7c0-1.8-0.7-2.7-2.1-2.7c-1.2,0-2.3,0.6-2.3,2v7.7h-2.4v-7c0-1.8-0.7-2.7-2.1-2.7
		c-1.2,0-2.4,0.6-2.4,2v7.7H148.4z"/>
	<path d="M167.1,471.9c0-3.7,2-6,5.3-6c3.4,0,5.1,2.5,5.1,5.7v0.9h-7.9v0.4c0,1.8,1.1,3,3,3c1.4,0,2.4-0.7,3-1.7l1.4,1.4
		c-0.9,1.4-2.5,2.3-4.7,2.3C169.1,477.9,167.1,475.5,167.1,471.9z M169.6,470.8v0.2h5.3v-0.2c0-1.8-1-2.9-2.6-2.9
		C170.7,467.8,169.6,469,169.6,470.8z"/>
</g>
<g class="st2">
	<path d="M151.9,546.5c0-5.2,2.6-7.9,6.6-7.9c4,0,6.6,2.8,6.6,7.9c0,5.2-2.6,7.9-6.6,7.9C154.5,554.4,151.9,551.7,151.9,546.5z
		 M162.5,547.7v-2.4c0-2.8-1.6-4.5-4-4.5c-2.4,0-4,1.7-4,4.5v2.4c0,2.8,1.6,4.5,4,4.5C160.9,552.2,162.5,550.5,162.5,547.7z"/>
	<path d="M175,552.3L175,552.3c-0.5,1.1-1.4,2.2-3.3,2.2c-2.4,0-3.7-1.6-3.7-4.4v-7.3h2.4v7c0,1.7,0.7,2.7,2.2,2.7
		c1.2,0,2.4-0.6,2.4-2v-7.7h2.4v11.4H175V552.3z"/>
	<path d="M184,554.2c-1.7,0-2.5-0.9-2.5-2.5v-7h-1.8v-2h1c0.8,0,1.1-0.3,1.1-1.1v-2h2.2v3.1h2.4v2h-2.4v7.5h2.2v2H184z"/>
	<path d="M188.8,542.7h2.4v1.9h0.1c0.5-1.4,1.7-2.2,3.2-2.2c2.9,0,4.6,2.2,4.6,6s-1.7,6-4.6,6c-1.5,0-2.7-0.8-3.2-2.2h-0.1v6.3h-2.4
		V542.7z M196.6,549.4v-2c0-1.8-1.1-2.9-2.8-2.9c-1.5,0-2.6,0.8-2.6,2v3.9c0,1.2,1.1,2,2.6,2C195.5,552.4,196.6,551.2,196.6,549.4z"
		/>
	<path d="M208.8,552.3L208.8,552.3c-0.5,1.1-1.4,2.2-3.3,2.2c-2.4,0-3.7-1.6-3.7-4.4v-7.3h2.4v7c0,1.7,0.7,2.7,2.2,2.7
		c1.2,0,2.4-0.6,2.4-2v-7.7h2.4v11.4h-2.4V552.3z"/>
	<path d="M217.8,554.2c-1.7,0-2.5-0.9-2.5-2.5v-7h-1.8v-2h1c0.8,0,1.1-0.3,1.1-1.1v-2h2.2v3.1h2.4v2h-2.4v7.5h2.2v2H217.8z"/>
	<path d="M232.2,545.7l-1.7-3.3h-0.1v11.8H228v-15.4h2.8l5,8.5l1.7,3.3h0.1v-11.8h2.4v15.4h-2.8L232.2,545.7z"/>
	<path d="M251.9,554.2c-1.3,0-1.9-0.8-2.1-1.9h-0.1c-0.4,1.4-1.7,2.2-3.3,2.2c-2.4,0-3.7-1.3-3.7-3.4c0-2.3,1.7-3.4,4.9-3.4h2.1v-1
		c0-1.4-0.7-2.2-2.4-2.2c-1.3,0-2.2,0.7-2.7,1.6l-1.4-1.3c0.7-1.3,2.1-2.2,4.3-2.2c2.9,0,4.6,1.5,4.6,4v5.7h1.2v2H251.9z
		 M249.7,550.8v-1.7h-2c-1.7,0-2.5,0.6-2.5,1.5v0.4c0,1,0.7,1.5,1.9,1.5C248.6,552.6,249.7,551.9,249.7,550.8z"/>
	<path d="M255.6,554.2v-11.4h2.4v1.9h0.1c0.5-1.2,1.3-2.2,3.1-2.2c1.5,0,2.8,0.7,3.4,2.3h0.1c0.4-1.3,1.6-2.3,3.5-2.3
		c2.3,0,3.6,1.6,3.6,4.4v7.3h-2.4v-7c0-1.8-0.7-2.7-2.1-2.7c-1.2,0-2.3,0.6-2.3,2v7.7h-2.4v-7c0-1.8-0.7-2.7-2.1-2.7
		c-1.2,0-2.4,0.6-2.4,2v7.7H255.6z"/>
	<path d="M274.3,548.5c0-3.7,2-6,5.3-6c3.4,0,5.1,2.5,5.1,5.7v0.9h-7.9v0.4c0,1.8,1.1,3,3,3c1.4,0,2.4-0.7,3-1.7l1.4,1.4
		c-0.9,1.4-2.5,2.3-4.7,2.3C276.3,554.4,274.3,552.1,274.3,548.5z M276.8,547.3v0.2h5.3v-0.2c0-1.8-1-2.9-2.6-2.9
		C277.9,544.3,276.8,545.6,276.8,547.3z"/>
</g>
<g class="st2">
	<path d="M151.9,607.3c0-5.2,2.6-7.9,6.6-7.9c4,0,6.6,2.8,6.6,7.9s-2.6,7.9-6.6,7.9C154.5,615.3,151.9,612.5,151.9,607.3z
		 M162.5,608.6v-2.4c0-2.8-1.6-4.5-4-4.5c-2.4,0-4,1.7-4,4.5v2.4c0,2.8,1.6,4.5,4,4.5C160.9,613.1,162.5,611.3,162.5,608.6z"/>
	<path d="M175,613.1L175,613.1c-0.5,1.1-1.4,2.2-3.3,2.2c-2.4,0-3.7-1.6-3.7-4.4v-7.3h2.4v7c0,1.7,0.7,2.7,2.2,2.7
		c1.2,0,2.4-0.6,2.4-2v-7.7h2.4V615H175V613.1z"/>
	<path d="M184,615c-1.7,0-2.5-0.9-2.5-2.5v-7h-1.8v-2h1c0.8,0,1.1-0.3,1.1-1.1v-2h2.2v3.1h2.4v2h-2.4v7.5h2.2v2H184z"/>
	<path d="M188.8,603.6h2.4v1.9h0.1c0.5-1.4,1.7-2.2,3.2-2.2c2.9,0,4.6,2.2,4.6,6c0,3.8-1.7,6-4.6,6c-1.5,0-2.7-0.8-3.2-2.2h-0.1v6.3
		h-2.4V603.6z M196.6,610.3v-2c0-1.8-1.1-2.9-2.8-2.9c-1.5,0-2.6,0.8-2.6,2v3.9c0,1.2,1.1,2,2.6,2
		C195.5,613.2,196.6,612.1,196.6,610.3z"/>
	<path d="M208.8,613.1L208.8,613.1c-0.5,1.1-1.4,2.2-3.3,2.2c-2.4,0-3.7-1.6-3.7-4.4v-7.3h2.4v7c0,1.7,0.7,2.7,2.2,2.7
		c1.2,0,2.4-0.6,2.4-2v-7.7h2.4V615h-2.4V613.1z"/>
	<path d="M217.8,615c-1.7,0-2.5-0.9-2.5-2.5v-7h-1.8v-2h1c0.8,0,1.1-0.3,1.1-1.1v-2h2.2v3.1h2.4v2h-2.4v7.5h2.2v2H217.8z"/>
	<path d="M232.2,606.5l-1.7-3.3h-0.1V615H228v-15.4h2.8l5,8.5l1.7,3.3h0.1v-11.8h2.4V615h-2.8L232.2,606.5z"/>
	<path d="M251.9,615c-1.3,0-1.9-0.8-2.1-1.9h-0.1c-0.4,1.4-1.7,2.2-3.3,2.2c-2.4,0-3.7-1.3-3.7-3.4c0-2.3,1.7-3.4,4.9-3.4h2.1v-1
		c0-1.4-0.7-2.2-2.4-2.2c-1.3,0-2.2,0.7-2.7,1.6l-1.4-1.3c0.7-1.3,2.1-2.2,4.3-2.2c2.9,0,4.6,1.5,4.6,4v5.7h1.2v2H251.9z
		 M249.7,611.6V610h-2c-1.7,0-2.5,0.6-2.5,1.5v0.4c0,1,0.7,1.5,1.9,1.5C248.6,613.5,249.7,612.8,249.7,611.6z"/>
	<path d="M255.6,615v-11.4h2.4v1.9h0.1c0.5-1.2,1.3-2.2,3.1-2.2c1.5,0,2.8,0.7,3.4,2.3h0.1c0.4-1.3,1.6-2.3,3.5-2.3
		c2.3,0,3.6,1.6,3.6,4.4v7.3h-2.4v-7c0-1.8-0.7-2.7-2.1-2.7c-1.2,0-2.3,0.6-2.3,2v7.7h-2.4v-7c0-1.8-0.7-2.7-2.1-2.7
		c-1.2,0-2.4,0.6-2.4,2v7.7H255.6z"/>
	<path d="M274.3,609.3c0-3.7,2-6,5.3-6c3.4,0,5.1,2.5,5.1,5.7v0.9h-7.9v0.4c0,1.8,1.1,3,3,3c1.4,0,2.4-0.7,3-1.7l1.4,1.4
		c-0.9,1.4-2.5,2.3-4.7,2.3C276.3,615.3,274.3,613,274.3,609.3z M276.8,608.2v0.2h5.3v-0.2c0-1.8-1-2.9-2.6-2.9
		C277.9,605.2,276.8,606.4,276.8,608.2z"/>
</g>
<circle class="st3" cx="305.6" cy="547.7" r="7.5"/>
<circle class="st4" cx="305.6" cy="607.5" r="7.5"/>
<line class="st0" x1="44.7" y1="493.5" x2="305.6" y2="493.5"/>
<path class="st1" d="M1305.7,553.5h-252.9c-2.2,0-4-1.8-4-4V167.2c0-2.2,1.8-4,4-4h252.9c2.2,0,4,1.8,4,4v382.3
	C1309.7,551.7,1307.9,553.5,1305.7,553.5z"/>
<g class="st2">
	<path d="M1070.5,185.8l-1.7-3.3h-0.1v11.8h-2.4v-15.4h2.8l5,8.5l1.7,3.3h0.1v-11.8h2.4v15.4h-2.8L1070.5,185.8z"/>
	<path d="M1081.1,188.6c0-3.7,2.1-6,5.3-6s5.3,2.3,5.3,6s-2.1,6-5.3,6S1081.1,192.2,1081.1,188.6z M1089.1,189.5v-1.9
		c0-2-1.1-3-2.7-3s-2.7,1-2.7,3v1.9c0,2,1.1,3,2.7,3S1089.1,191.5,1089.1,189.5z"/>
	<path d="M1101.5,192.4h-0.1c-0.5,1.3-1.7,2.2-3.2,2.2c-2.9,0-4.6-2.2-4.6-6s1.7-6,4.6-6c1.5,0,2.7,0.8,3.2,2.2h0.1V178h2.4v16.3
		h-2.4V192.4z M1101.5,190.5v-3.9c0-1.2-1.1-2-2.6-2c-1.7,0-2.8,1.2-2.8,2.9v2c0,1.8,1.1,2.9,2.8,2.9
		C1100.4,192.5,1101.5,191.7,1101.5,190.5z"/>
	<path d="M1106.6,188.6c0-3.7,2-6,5.3-6c3.4,0,5.1,2.5,5.1,5.7v0.9h-7.9v0.4c0,1.8,1.1,3,3,3c1.4,0,2.4-0.7,3-1.7l1.4,1.4
		c-0.9,1.4-2.5,2.3-4.7,2.3C1108.6,194.5,1106.6,192.2,1106.6,188.6z M1109.1,187.4v0.2h5.3v-0.2c0-1.8-1-2.9-2.6-2.9
		C1110.2,184.4,1109.1,185.7,1109.1,187.4z"/>
	<path d="M1129.1,185.8l-1.7-3.3h-0.1v11.8h-2.4v-15.4h2.8l5,8.5l1.7,3.3h0.1v-11.8h2.4v15.4h-2.8L1129.1,185.8z"/>
	<path d="M1148.9,194.3c-1.3,0-1.9-0.8-2.1-1.9h-0.1c-0.4,1.4-1.7,2.2-3.3,2.2c-2.4,0-3.7-1.3-3.7-3.4c0-2.3,1.7-3.4,4.9-3.4h2.1v-1
		c0-1.4-0.7-2.2-2.4-2.2c-1.3,0-2.2,0.7-2.7,1.6l-1.4-1.3c0.7-1.3,2.1-2.2,4.3-2.2c2.9,0,4.6,1.5,4.6,4v5.7h1.2v2H1148.9z
		 M1146.6,190.9v-1.7h-2c-1.7,0-2.5,0.6-2.5,1.5v0.4c0,1,0.7,1.5,1.9,1.5C1145.5,192.7,1146.6,192,1146.6,190.9z"/>
	<path d="M1152.6,194.3v-11.4h2.4v1.9h0.1c0.5-1.2,1.3-2.2,3.1-2.2c1.5,0,2.8,0.7,3.4,2.3h0.1c0.4-1.3,1.6-2.3,3.5-2.3
		c2.3,0,3.6,1.6,3.6,4.4v7.3h-2.4v-7c0-1.8-0.7-2.7-2.1-2.7c-1.2,0-2.3,0.6-2.3,2v7.7h-2.4v-7c0-1.8-0.7-2.7-2.1-2.7
		c-1.2,0-2.4,0.6-2.4,2v7.7H1152.6z"/>
	<path d="M1171.2,188.6c0-3.7,2-6,5.3-6c3.4,0,5.1,2.5,5.1,5.7v0.9h-7.9v0.4c0,1.8,1.1,3,3,3c1.4,0,2.4-0.7,3-1.7l1.4,1.4
		c-0.9,1.4-2.5,2.3-4.7,2.3C1173.2,194.5,1171.2,192.2,1171.2,188.6z M1173.7,187.4v0.2h5.3v-0.2c0-1.8-1-2.9-2.6-2.9
		C1174.8,184.4,1173.7,185.7,1173.7,187.4z"/>
</g>
<g class="st2">
	<path d="M1070.7,453.4v-2h2.1V440h-2.1v-2h6.7v2h-2.1v11.3h2.1v2H1070.7z"/>
	<path d="M1080.4,453.4v-11.4h2.4v1.9h0.1c0.5-1.2,1.5-2.2,3.2-2.2c2.3,0,3.7,1.6,3.7,4.4v7.3h-2.4v-7c0-1.8-0.7-2.7-2.2-2.7
		c-1.3,0-2.5,0.6-2.5,2v7.7H1080.4z"/>
	<path d="M1093.1,441.9h2.4v1.9h0.1c0.5-1.4,1.7-2.2,3.2-2.2c2.9,0,4.6,2.2,4.6,6s-1.7,6-4.6,6c-1.5,0-2.7-0.8-3.2-2.2h-0.1v6.3
		h-2.4V441.9z M1100.9,448.6v-2c0-1.8-1.1-2.9-2.8-2.9c-1.5,0-2.6,0.8-2.6,2v3.9c0,1.2,1.1,2,2.6,2
		C1099.8,451.6,1100.9,450.4,1100.9,448.6z"/>
	<path d="M1113.1,451.5L1113.1,451.5c-0.5,1.1-1.4,2.2-3.3,2.2c-2.4,0-3.7-1.6-3.7-4.4v-7.3h2.4v7c0,1.7,0.7,2.7,2.2,2.7
		c1.2,0,2.4-0.6,2.4-2v-7.7h2.4v11.4h-2.4V451.5z"/>
	<path d="M1122.1,453.4c-1.7,0-2.5-0.9-2.5-2.5v-7h-1.8v-2h1c0.8,0,1.1-0.3,1.1-1.1v-2h2.2v3.1h2.4v2h-2.4v7.5h2.2v2H1122.1z"/>
	<path d="M1136.4,444.9l-1.7-3.3h-0.1v11.8h-2.4V438h2.8l5,8.5l1.7,3.3h0.1V438h2.4v15.4h-2.8L1136.4,444.9z"/>
	<path d="M1156.2,453.4c-1.3,0-1.9-0.8-2.1-1.9h-0.1c-0.4,1.4-1.7,2.2-3.3,2.2c-2.4,0-3.7-1.3-3.7-3.4c0-2.3,1.7-3.4,4.9-3.4h2.1v-1
		c0-1.4-0.7-2.2-2.4-2.2c-1.3,0-2.2,0.7-2.7,1.6l-1.4-1.3c0.7-1.3,2.1-2.2,4.3-2.2c2.9,0,4.6,1.5,4.6,4v5.7h1.2v2H1156.2z M1154,450
		v-1.7h-2c-1.7,0-2.5,0.6-2.5,1.5v0.4c0,1,0.7,1.5,1.9,1.5C1152.9,451.8,1154,451.1,1154,450z"/>
	<path d="M1159.9,453.4v-11.4h2.4v1.9h0.1c0.5-1.2,1.3-2.2,3.1-2.2c1.5,0,2.8,0.7,3.4,2.3h0.1c0.4-1.3,1.6-2.3,3.5-2.3
		c2.3,0,3.6,1.6,3.6,4.4v7.3h-2.4v-7c0-1.8-0.7-2.7-2.1-2.7c-1.2,0-2.3,0.6-2.3,2v7.7h-2.4v-7c0-1.8-0.7-2.7-2.1-2.7
		c-1.2,0-2.4,0.6-2.4,2v7.7H1159.9z"/>
	<path d="M1178.6,447.7c0-3.7,2-6,5.3-6c3.4,0,5.1,2.5,5.1,5.7v0.9h-7.9v0.4c0,1.8,1.1,3,3,3c1.4,0,2.4-0.7,3-1.7l1.4,1.4
		c-0.9,1.4-2.5,2.3-4.7,2.3C1180.6,453.6,1178.6,451.3,1178.6,447.7z M1181,446.5v0.2h5.3v-0.2c0-1.8-1-2.9-2.6-2.9
		C1182.2,443.5,1181,444.8,1181,446.5z"/>
</g>
<g class="st2">
	<path d="M1070.7,392.5v-2h2.1v-11.3h-2.1v-2h6.7v2h-2.1v11.3h2.1v2H1070.7z"/>
	<path d="M1080.4,392.5v-11.4h2.4v1.9h0.1c0.5-1.2,1.5-2.2,3.2-2.2c2.3,0,3.7,1.6,3.7,4.4v7.3h-2.4v-7c0-1.8-0.7-2.7-2.2-2.7
		c-1.3,0-2.5,0.6-2.5,2v7.7H1080.4z"/>
	<path d="M1093.1,381.1h2.4v1.9h0.1c0.5-1.4,1.7-2.2,3.2-2.2c2.9,0,4.6,2.2,4.6,6c0,3.8-1.7,6-4.6,6c-1.5,0-2.7-0.8-3.2-2.2h-0.1
		v6.3h-2.4V381.1z M1100.9,387.8v-2c0-1.8-1.1-2.9-2.8-2.9c-1.5,0-2.6,0.8-2.6,2v3.9c0,1.2,1.1,2,2.6,2
		C1099.8,390.7,1100.9,389.6,1100.9,387.8z"/>
	<path d="M1113.1,390.6L1113.1,390.6c-0.5,1.1-1.4,2.2-3.3,2.2c-2.4,0-3.7-1.6-3.7-4.4v-7.3h2.4v7c0,1.7,0.7,2.7,2.2,2.7
		c1.2,0,2.4-0.6,2.4-2v-7.7h2.4v11.4h-2.4V390.6z"/>
	<path d="M1122.1,392.5c-1.7,0-2.5-0.9-2.5-2.5v-7h-1.8v-2h1c0.8,0,1.1-0.3,1.1-1.1v-2h2.2v3.1h2.4v2h-2.4v7.5h2.2v2H1122.1z"/>
	<path d="M1136.4,384l-1.7-3.3h-0.1v11.8h-2.4v-15.4h2.8l5,8.5l1.7,3.3h0.1v-11.8h2.4v15.4h-2.8L1136.4,384z"/>
	<path d="M1156.2,392.5c-1.3,0-1.9-0.8-2.1-1.9h-0.1c-0.4,1.4-1.7,2.2-3.3,2.2c-2.4,0-3.7-1.3-3.7-3.4c0-2.3,1.7-3.4,4.9-3.4h2.1v-1
		c0-1.4-0.7-2.2-2.4-2.2c-1.3,0-2.2,0.7-2.7,1.6l-1.4-1.3c0.7-1.3,2.1-2.2,4.3-2.2c2.9,0,4.6,1.5,4.6,4v5.7h1.2v2H1156.2z
		 M1154,389.1v-1.7h-2c-1.7,0-2.5,0.6-2.5,1.5v0.4c0,1,0.7,1.5,1.9,1.5C1152.9,391,1154,390.3,1154,389.1z"/>
	<path d="M1159.9,392.5v-11.4h2.4v1.9h0.1c0.5-1.2,1.3-2.2,3.1-2.2c1.5,0,2.8,0.7,3.4,2.3h0.1c0.4-1.3,1.6-2.3,3.5-2.3
		c2.3,0,3.6,1.6,3.6,4.4v7.3h-2.4v-7c0-1.8-0.7-2.7-2.1-2.7c-1.2,0-2.3,0.6-2.3,2v7.7h-2.4v-7c0-1.8-0.7-2.7-2.1-2.7
		c-1.2,0-2.4,0.6-2.4,2v7.7H1159.9z"/>
	<path d="M1178.6,386.8c0-3.7,2-6,5.3-6c3.4,0,5.1,2.5,5.1,5.7v0.9h-7.9v0.4c0,1.8,1.1,3,3,3c1.4,0,2.4-0.7,3-1.7l1.4,1.4
		c-0.9,1.4-2.5,2.3-4.7,2.3C1180.6,392.8,1178.6,390.5,1178.6,386.8z M1181,385.7v0.2h5.3v-0.2c0-1.8-1-2.9-2.6-2.9
		C1182.2,382.7,1181,383.9,1181,385.7z"/>
</g>
<g class="st2">
	<path d="M1156,263.2c0-5.2,2.6-7.9,6.6-7.9c4,0,6.6,2.8,6.6,7.9c0,5.2-2.6,7.9-6.6,7.9C1158.6,271.1,1156,268.3,1156,263.2z
		 M1166.6,264.4v-2.4c0-2.8-1.6-4.5-4-4.5c-2.4,0-4,1.7-4,4.5v2.4c0,2.8,1.6,4.5,4,4.5C1165,268.9,1166.6,267.2,1166.6,264.4z"/>
	<path d="M1179.1,268.9L1179.1,268.9c-0.5,1.1-1.4,2.2-3.3,2.2c-2.4,0-3.7-1.6-3.7-4.4v-7.3h2.4v7c0,1.7,0.7,2.7,2.2,2.7
		c1.2,0,2.4-0.6,2.4-2v-7.7h2.4v11.4h-2.4V268.9z"/>
	<path d="M1188.1,270.8c-1.7,0-2.5-0.9-2.5-2.5v-7h-1.8v-2h1c0.8,0,1.1-0.3,1.1-1.1v-2h2.2v3.1h2.4v2h-2.4v7.5h2.2v2H1188.1z"/>
	<path d="M1193,259.4h2.4v1.9h0.1c0.5-1.4,1.7-2.2,3.2-2.2c2.9,0,4.6,2.2,4.6,6s-1.7,6-4.6,6c-1.5,0-2.7-0.8-3.2-2.2h-0.1v6.3h-2.4
		V259.4z M1200.7,266.1v-2c0-1.8-1.1-2.9-2.8-2.9c-1.5,0-2.6,0.8-2.6,2v3.9c0,1.2,1.1,2,2.6,2C1199.6,269,1200.7,267.9,1200.7,266.1
		z"/>
	<path d="M1212.9,268.9L1212.9,268.9c-0.5,1.1-1.4,2.2-3.3,2.2c-2.4,0-3.7-1.6-3.7-4.4v-7.3h2.4v7c0,1.7,0.7,2.7,2.2,2.7
		c1.2,0,2.4-0.6,2.4-2v-7.7h2.4v11.4h-2.4V268.9z"/>
	<path d="M1221.9,270.8c-1.7,0-2.5-0.9-2.5-2.5v-7h-1.8v-2h1c0.8,0,1.1-0.3,1.1-1.1v-2h2.2v3.1h2.4v2h-2.4v7.5h2.2v2H1221.9z"/>
	<path d="M1236.3,262.3l-1.7-3.3h-0.1v11.8h-2.4v-15.4h2.8l5,8.5l1.7,3.3h0.1v-11.8h2.4v15.4h-2.8L1236.3,262.3z"/>
	<path d="M1256.1,270.8c-1.3,0-1.9-0.8-2.1-1.9h-0.1c-0.4,1.4-1.7,2.2-3.3,2.2c-2.4,0-3.7-1.3-3.7-3.4c0-2.3,1.7-3.4,4.9-3.4h2.1v-1
		c0-1.4-0.7-2.2-2.4-2.2c-1.3,0-2.2,0.7-2.7,1.6l-1.4-1.3c0.7-1.3,2.1-2.2,4.3-2.2c2.9,0,4.6,1.5,4.6,4v5.7h1.2v2H1256.1z
		 M1253.8,267.5v-1.7h-2c-1.7,0-2.5,0.6-2.5,1.5v0.4c0,1,0.7,1.5,1.9,1.5C1252.7,269.3,1253.8,268.6,1253.8,267.5z"/>
	<path d="M1259.8,270.8v-11.4h2.4v1.9h0.1c0.5-1.2,1.3-2.2,3.1-2.2c1.5,0,2.8,0.7,3.4,2.3h0.1c0.4-1.3,1.6-2.3,3.5-2.3
		c2.3,0,3.6,1.6,3.6,4.4v7.3h-2.4v-7c0-1.8-0.7-2.7-2.1-2.7c-1.2,0-2.3,0.6-2.3,2v7.7h-2.4v-7c0-1.8-0.7-2.7-2.1-2.7
		c-1.2,0-2.4,0.6-2.4,2v7.7H1259.8z"/>
	<path d="M1278.4,265.1c0-3.7,2-6,5.3-6c3.4,0,5.1,2.5,5.1,5.7v0.9h-7.9v0.4c0,1.8,1.1,3,3,3c1.4,0,2.4-0.7,3-1.7l1.4,1.4
		c-0.9,1.4-2.5,2.3-4.7,2.3C1280.4,271.1,1278.4,268.8,1278.4,265.1z M1280.9,264v0.2h5.3v-0.2c0-1.8-1-2.9-2.6-2.9
		C1282,261,1280.9,262.2,1280.9,264z"/>
</g>
<g class="st2">
	<path d="M1156,324c0-5.2,2.6-7.9,6.6-7.9c4,0,6.6,2.8,6.6,7.9c0,5.2-2.6,7.9-6.6,7.9C1158.6,332,1156,329.2,1156,324z
		 M1166.6,325.2v-2.4c0-2.8-1.6-4.5-4-4.5c-2.4,0-4,1.7-4,4.5v2.4c0,2.8,1.6,4.5,4,4.5C1165,329.7,1166.6,328,1166.6,325.2z"/>
	<path d="M1179.1,329.8L1179.1,329.8c-0.5,1.1-1.4,2.2-3.3,2.2c-2.4,0-3.7-1.6-3.7-4.4v-7.3h2.4v7c0,1.7,0.7,2.7,2.2,2.7
		c1.2,0,2.4-0.6,2.4-2v-7.7h2.4v11.4h-2.4V329.8z"/>
	<path d="M1188.1,331.7c-1.7,0-2.5-0.9-2.5-2.5v-7h-1.8v-2h1c0.8,0,1.1-0.3,1.1-1.1v-2h2.2v3.1h2.4v2h-2.4v7.5h2.2v2H1188.1z"/>
	<path d="M1193,320.2h2.4v1.9h0.1c0.5-1.4,1.7-2.2,3.2-2.2c2.9,0,4.6,2.2,4.6,6s-1.7,6-4.6,6c-1.5,0-2.7-0.8-3.2-2.2h-0.1v6.3h-2.4
		V320.2z M1200.7,327v-2c0-1.8-1.1-2.9-2.8-2.9c-1.5,0-2.6,0.8-2.6,2v3.9c0,1.2,1.1,2,2.6,2C1199.6,329.9,1200.7,328.7,1200.7,327z"
		/>
	<path d="M1212.9,329.8L1212.9,329.8c-0.5,1.1-1.4,2.2-3.3,2.2c-2.4,0-3.7-1.6-3.7-4.4v-7.3h2.4v7c0,1.7,0.7,2.7,2.2,2.7
		c1.2,0,2.4-0.6,2.4-2v-7.7h2.4v11.4h-2.4V329.8z"/>
	<path d="M1221.9,331.7c-1.7,0-2.5-0.9-2.5-2.5v-7h-1.8v-2h1c0.8,0,1.1-0.3,1.1-1.1v-2h2.2v3.1h2.4v2h-2.4v7.5h2.2v2H1221.9z"/>
	<path d="M1236.3,323.2l-1.7-3.3h-0.1v11.8h-2.4v-15.4h2.8l5,8.5l1.7,3.3h0.1v-11.8h2.4v15.4h-2.8L1236.3,323.2z"/>
	<path d="M1256.1,331.7c-1.3,0-1.9-0.8-2.1-1.9h-0.1c-0.4,1.4-1.7,2.2-3.3,2.2c-2.4,0-3.7-1.3-3.7-3.4c0-2.3,1.7-3.4,4.9-3.4h2.1v-1
		c0-1.4-0.7-2.2-2.4-2.2c-1.3,0-2.2,0.7-2.7,1.6l-1.4-1.3c0.7-1.3,2.1-2.2,4.3-2.2c2.9,0,4.6,1.5,4.6,4v5.7h1.2v2H1256.1z
		 M1253.8,328.3v-1.7h-2c-1.7,0-2.5,0.6-2.5,1.5v0.4c0,1,0.7,1.5,1.9,1.5C1252.7,330.1,1253.8,329.4,1253.8,328.3z"/>
	<path d="M1259.8,331.7v-11.4h2.4v1.9h0.1c0.5-1.2,1.3-2.2,3.1-2.2c1.5,0,2.8,0.7,3.4,2.3h0.1c0.4-1.3,1.6-2.3,3.5-2.3
		c2.3,0,3.6,1.6,3.6,4.4v7.3h-2.4v-7c0-1.8-0.7-2.7-2.1-2.7c-1.2,0-2.3,0.6-2.3,2v7.7h-2.4v-7c0-1.8-0.7-2.7-2.1-2.7
		c-1.2,0-2.4,0.6-2.4,2v7.7H1259.8z"/>
	<path d="M1278.4,326c0-3.7,2-6,5.3-6c3.4,0,5.1,2.5,5.1,5.7v0.9h-7.9v0.4c0,1.8,1.1,3,3,3c1.4,0,2.4-0.7,3-1.7l1.4,1.4
		c-0.9,1.4-2.5,2.3-4.7,2.3C1280.4,332,1278.4,329.6,1278.4,326z M1280.9,324.8v0.2h5.3v-0.2c0-1.8-1-2.9-2.6-2.9
		C1282,321.9,1280.9,323.1,1280.9,324.8z"/>
</g>
<circle class="st4" cx="1309.7" cy="264.3" r="7.5"/>
<circle class="st4" cx="1048.8" cy="385.7" r="7.5"/>
<circle class="st5" cx="1048.8" cy="446.6" r="7.5"/>
<circle class="st4" cx="1309.7" cy="324.2" r="7.5"/>
<line class="st0" x1="1048.8" y1="210.2" x2="1309.7" y2="210.2"/>
<path class="st1" d="M305.3,210.2H52.5c-2.2,0-4-1.8-4-4V53.9c0-2.2,1.8-4,4-4h252.9c2.2,0,4,1.8,4,4v152.3
	C309.3,208.4,307.5,210.2,305.3,210.2z"/>
<g class="st2">
	<path d="M70.1,72.5l-1.7-3.3h-0.1V81H66V65.6h2.8l5,8.5l1.7,3.3h0.1V65.6h2.4V81h-2.8L70.1,72.5z"/>
	<path d="M80.8,75.3c0-3.7,2.1-6,5.3-6s5.3,2.3,5.3,6s-2.1,6-5.3,6S80.8,78.9,80.8,75.3z M88.8,76.2v-1.9c0-2-1.1-3-2.7-3
		c-1.6,0-2.7,1-2.7,3v1.9c0,2,1.1,3,2.7,3C87.7,79.3,88.8,78.2,88.8,76.2z"/>
	<path d="M101.1,79.1H101c-0.5,1.3-1.7,2.2-3.2,2.2c-2.9,0-4.6-2.2-4.6-6s1.7-6,4.6-6c1.5,0,2.7,0.8,3.2,2.2h0.1v-6.7h2.4V81h-2.4
		V79.1z M101.1,77.2v-3.9c0-1.2-1.1-2-2.6-2c-1.7,0-2.8,1.2-2.8,2.9v2c0,1.8,1.1,2.9,2.8,2.9C100,79.2,101.1,78.4,101.1,77.2z"/>
	<path d="M106.2,75.3c0-3.7,2-6,5.3-6c3.4,0,5.1,2.5,5.1,5.7v0.9h-7.9v0.4c0,1.8,1.1,3,3,3c1.4,0,2.4-0.7,3-1.7l1.4,1.4
		c-0.9,1.4-2.5,2.3-4.7,2.3C108.2,81.2,106.2,78.9,106.2,75.3z M108.7,74.1v0.2h5.3v-0.2c0-1.8-1-2.9-2.6-2.9
		C109.8,71.1,108.7,72.4,108.7,74.1z"/>
	<path d="M128.7,72.5l-1.7-3.3h-0.1V81h-2.4V65.6h2.8l5,8.5l1.7,3.3h0.1V65.6h2.4V81h-2.8L128.7,72.5z"/>
	<path d="M148.5,81c-1.3,0-1.9-0.8-2.1-1.9h-0.1c-0.4,1.4-1.7,2.2-3.3,2.2c-2.4,0-3.7-1.3-3.7-3.4c0-2.3,1.7-3.4,4.9-3.4h2.1v-1
		c0-1.4-0.7-2.2-2.4-2.2c-1.3,0-2.2,0.7-2.7,1.6l-1.4-1.3c0.7-1.3,2.1-2.2,4.3-2.2c2.9,0,4.6,1.5,4.6,4V79h1.2v2H148.5z M146.2,77.6
		v-1.7h-2c-1.7,0-2.5,0.6-2.5,1.5v0.4c0,1,0.7,1.5,1.9,1.5C145.1,79.4,146.2,78.7,146.2,77.6z"/>
	<path d="M152.2,81V69.5h2.4v1.9h0.1c0.5-1.2,1.3-2.2,3.1-2.2c1.5,0,2.8,0.7,3.4,2.3h0.1c0.4-1.3,1.6-2.3,3.5-2.3
		c2.3,0,3.6,1.6,3.6,4.4V81h-2.4v-7c0-1.8-0.7-2.7-2.1-2.7c-1.2,0-2.3,0.6-2.3,2V81H159v-7c0-1.8-0.7-2.7-2.1-2.7
		c-1.2,0-2.4,0.6-2.4,2V81H152.2z"/>
	<path d="M170.8,75.3c0-3.7,2-6,5.3-6c3.4,0,5.1,2.5,5.1,5.7v0.9h-7.9v0.4c0,1.8,1.1,3,3,3c1.4,0,2.4-0.7,3-1.7l1.4,1.4
		c-0.9,1.4-2.5,2.3-4.7,2.3C172.8,81.2,170.8,78.9,170.8,75.3z M173.3,74.1v0.2h5.3v-0.2c0-1.8-1-2.9-2.6-2.9
		C174.4,71.1,173.3,72.4,173.3,74.1z"/>
</g>
<g class="st2">
	<path d="M155.6,149.9c0-5.2,2.6-7.9,6.6-7.9c4,0,6.6,2.8,6.6,7.9c0,5.2-2.6,7.9-6.6,7.9C158.3,157.8,155.6,155,155.6,149.9z
		 M166.2,151.1v-2.4c0-2.8-1.6-4.5-4-4.5c-2.4,0-4,1.7-4,4.5v2.4c0,2.8,1.6,4.5,4,4.5C164.6,155.6,166.2,153.9,166.2,151.1z"/>
	<path d="M178.7,155.6L178.7,155.6c-0.5,1.1-1.4,2.2-3.3,2.2c-2.4,0-3.7-1.6-3.7-4.4v-7.3h2.4v7c0,1.7,0.7,2.7,2.2,2.7
		c1.2,0,2.4-0.6,2.4-2v-7.7h2.4v11.4h-2.4V155.6z"/>
	<path d="M187.7,157.5c-1.7,0-2.5-0.9-2.5-2.5v-7h-1.8v-2h1c0.8,0,1.1-0.3,1.1-1.1v-2h2.2v3.1h2.4v2h-2.4v7.5h2.2v2H187.7z"/>
	<path d="M192.6,146.1h2.4v1.9h0.1c0.5-1.4,1.7-2.2,3.2-2.2c2.9,0,4.6,2.2,4.6,6s-1.7,6-4.6,6c-1.5,0-2.7-0.8-3.2-2.2H195v6.3h-2.4
		V146.1z M200.3,152.8v-2c0-1.8-1.1-2.9-2.8-2.9c-1.5,0-2.6,0.8-2.6,2v3.9c0,1.2,1.1,2,2.6,2C199.2,155.7,200.3,154.6,200.3,152.8z"
		/>
	<path d="M212.6,155.6L212.6,155.6c-0.5,1.1-1.4,2.2-3.3,2.2c-2.4,0-3.7-1.6-3.7-4.4v-7.3h2.4v7c0,1.7,0.7,2.7,2.2,2.7
		c1.2,0,2.4-0.6,2.4-2v-7.7h2.4v11.4h-2.4V155.6z"/>
	<path d="M221.5,157.5c-1.7,0-2.5-0.9-2.5-2.5v-7h-1.8v-2h1c0.8,0,1.1-0.3,1.1-1.1v-2h2.2v3.1h2.4v2h-2.4v7.5h2.2v2H221.5z"/>
	<path d="M235.9,149l-1.7-3.3h-0.1v11.8h-2.4v-15.4h2.8l5,8.5l1.7,3.3h0.1v-11.8h2.4v15.4h-2.8L235.9,149z"/>
	<path d="M255.7,157.5c-1.3,0-1.9-0.8-2.1-1.9h-0.1c-0.4,1.4-1.7,2.2-3.3,2.2c-2.4,0-3.7-1.3-3.7-3.4c0-2.3,1.7-3.4,4.9-3.4h2.1v-1
		c0-1.4-0.7-2.2-2.4-2.2c-1.3,0-2.2,0.7-2.7,1.6l-1.4-1.3c0.7-1.3,2.1-2.2,4.3-2.2c2.9,0,4.6,1.5,4.6,4v5.7h1.2v2H255.7z
		 M253.4,154.1v-1.7h-2c-1.7,0-2.5,0.6-2.5,1.5v0.4c0,1,0.7,1.5,1.9,1.5C252.3,156,253.4,155.3,253.4,154.1z"/>
	<path d="M259.4,157.5v-11.4h2.4v1.9h0.1c0.5-1.2,1.3-2.2,3.1-2.2c1.5,0,2.8,0.7,3.4,2.3h0.1c0.4-1.3,1.6-2.3,3.5-2.3
		c2.3,0,3.6,1.6,3.6,4.4v7.3h-2.4v-7c0-1.8-0.7-2.7-2.1-2.7c-1.2,0-2.3,0.6-2.3,2v7.7h-2.4v-7c0-1.8-0.7-2.7-2.1-2.7
		c-1.2,0-2.4,0.6-2.4,2v7.7H259.4z"/>
	<path d="M278,151.8c0-3.7,2-6,5.3-6c3.4,0,5.1,2.5,5.1,5.7v0.9h-7.9v0.4c0,1.8,1.1,3,3,3c1.4,0,2.4-0.7,3-1.7l1.4,1.4
		c-0.9,1.4-2.5,2.3-4.7,2.3C280,157.8,278,155.5,278,151.8z M280.5,150.7v0.2h5.3v-0.2c0-1.8-1-2.9-2.6-2.9
		C281.6,147.7,280.5,148.9,280.5,150.7z"/>
</g>
<circle class="st5" cx="309.3" cy="151" r="7.5"/>
<line class="st0" x1="48.5" y1="96.9" x2="309.3" y2="96.9"/>
<linearGradient id="SVGID_1_" gradientUnits="userSpaceOnUse" x1="1308.3123" y1="326.75" x2="1591.1877" y2="326.75" gradientTransform="matrix(1 0 0 -1 0 726)">
	<stop  offset="0" style="stop-color:#000000"/>
	<stop  offset="1" style="stop-color:#000000;stop-opacity:0"/>
</linearGradient>
<line class="st6" x1="1309.7" y1="264.3" x2="1589.8" y2="534.2"/>
</svg>
