<?xml version="1.0" encoding="utf-8"?>
<!-- Generator: Adobe Illustrator 25.4.1, SVG Export Plug-In . SVG Version: 6.00 Build 0)  -->
<svg version="1.1" id="Layer_1" xmlns="http://www.w3.org/2000/svg" xmlns:xlink="http://www.w3.org/1999/xlink" x="0px" y="0px"
	 viewBox="0 0 1634.5 726.7" style="enable-background:new 0 0 1634.5 726.7;" xml:space="preserve">
<style type="text/css">
	.st0{fill:#FFFFFF;stroke:#000000;stroke-width:5.86;stroke-miterlimit:10;}
	.st1{fill:#FFFFFF;stroke:#000000;stroke-width:5.86;stroke-linecap:round;stroke-miterlimit:10;}
	.st2{fill:#FFFFFF;stroke:#000000;stroke-width:5.86;stroke-linejoin:round;stroke-miterlimit:10;}
	.st3{fill:#2BB735;stroke:#000000;stroke-width:5.86;stroke-linejoin:round;stroke-miterlimit:10;}
	.st4{fill:#2B5DB7;stroke:#000000;stroke-width:5.86;stroke-linecap:round;stroke-linejoin:round;stroke-miterlimit:10;}
	.st5{fill:#BA2A2A;stroke:#000000;stroke-width:5.86;stroke-linecap:round;stroke-linejoin:round;stroke-miterlimit:10;}
	.st6{stroke:#000000;stroke-width:5.86;stroke-linejoin:round;stroke-miterlimit:10;}
	.st7{stroke:#000000;stroke-width:7.325;stroke-linecap:round;stroke-linejoin:round;stroke-miterlimit:10;}
</style>
<g>
	<path class="st0" d="M1244.2,443.2H928.9c-4.1,0-7.5-2.2-7.5-4.9v-62.6c0-2.7,3.4-4.9,7.5-4.9h315.4c4.1,0,7.5,2.2,7.5,4.9v62.6
		C1251.7,441,1248.3,443.2,1244.2,443.2z"/>
	<g>
		<path d="M1028.9,408l2.9-2.8c1.5,1.8,3.4,2.8,5.8,2.8c2.6,0,4-1.3,4-3.2c0-1.5-0.7-2.4-3.1-2.9l-2.1-0.3c-4.5-0.7-6.7-2.9-6.7-6.5
			c0-4,3.1-6.6,8.2-6.6c3.4,0,5.9,1.2,7.7,3.3l-2.9,2.7c-1.1-1.4-2.6-2.3-5-2.3c-2.4,0-3.7,1-3.7,2.6c0,1.7,1,2.4,3.1,2.8l2.1,0.4
			c4.5,0.8,6.7,2.8,6.7,6.5c0,4.3-3.1,7.2-8.4,7.2C1033.4,411.8,1030.8,410.3,1028.9,408z"/>
		<path d="M1048.6,402.9c0-5.4,3-8.8,7.8-8.8c4.8,0,7.8,3.4,7.8,8.8c0,5.4-3,8.8-7.8,8.8C1051.6,411.8,1048.6,408.4,1048.6,402.9z
			 M1059.9,404.5v-3.1c0-2.5-1.4-3.9-3.5-3.9c-2.1,0-3.5,1.4-3.5,3.9v3.1c0,2.5,1.4,3.9,3.5,3.9
			C1058.5,408.4,1059.9,407.1,1059.9,404.5z"/>
		<path d="M1066.7,402.9c0-5.4,2.8-8.8,7.8-8.8c3.4,0,5.6,1.6,6.6,4.3l-3.4,1.5c-0.4-1.4-1.5-2.4-3.2-2.4c-2.3,0-3.4,1.6-3.4,4v3.1
			c0,2.4,1.2,3.9,3.4,3.9c2,0,2.9-1.1,3.5-2.6l3.2,1.5c-1.1,3-3.4,4.4-6.7,4.4C1069.5,411.8,1066.7,408.4,1066.7,402.9z"/>
		<path d="M1084.4,387.5h4.1v14.4h0.2l2.2-3l3.8-4.3h4.7l-5.8,6.5l6.4,10.3h-4.9l-4.3-7.5l-2.2,2.4v5.1h-4.1V387.5z"/>
		<path d="M1100.6,402.9c0-5.3,2.9-8.8,7.8-8.8c5.3,0,7.7,3.9,7.7,8.5v1.4h-11.2v0.4c0,2.4,1.4,4.1,4.1,4.1c2,0,3.3-1,4.3-2.3
			l2.2,2.5c-1.4,1.9-3.8,3.1-7,3.1C1103.6,411.8,1100.6,408.3,1100.6,402.9z M1104.9,401.2v0.3h6.9v-0.3c0-2.3-1.2-3.9-3.3-3.9
			C1106.3,397.3,1104.9,398.9,1104.9,401.2z"/>
		<path d="M1120.6,407.1v-9.2h-2.5v-3.3h1.3c1.2,0,1.6-0.6,1.6-1.7V390h3.7v4.6h3.4v3.3h-3.4v10.2h3.2v3.3h-3
			C1122.1,411.4,1120.6,409.8,1120.6,407.1z"/>
		<path d="M1130.3,408.7l2.5-2.4c1.2,1.4,2.7,2.3,4.6,2.3c2,0,2.8-0.7,2.8-1.9c0-1-0.6-1.6-2.1-1.8l-1.7-0.2c-3.6-0.5-5.6-2-5.6-5.1
			c0-3.3,2.5-5.3,6.4-5.3c3.3,0,5,1,6.6,2.6l-2.4,2.4c-1-1-2.4-1.8-4-1.8c-1.8,0-2.5,0.7-2.5,1.7c0,1.1,0.6,1.6,2.2,1.9l1.7,0.2
			c3.7,0.5,5.4,2.2,5.4,5c0,3.3-2.7,5.5-6.9,5.5C1134.1,411.8,1132,410.6,1130.3,408.7z"/>
	</g>
	<line class="st1" x1="953.4" y1="428.2" x2="1219.7" y2="428.2"/>
	<rect x="1238.8" y="394.1" class="st2" width="25.8" height="25.8"/>
	<polygon class="st3" points="1086.5,370.8 1101.4,345 1071.7,345 	"/>
	<polygon class="st4" points="1086.5,443.2 1071.7,468.9 1101.4,468.9 	"/>
	<polygon class="st5" points="921.4,407 895.6,392.1 895.6,421.9 	"/>
</g>
<g>
	<path class="st0" d="M622.6,454.9H375.8c-3.2,0-5.9-2.6-5.9-5.9v-74.7c0-3.2,2.6-5.9,5.9-5.9h246.9c3.2,0,5.9,2.6,5.9,5.9V449
		C628.5,452.3,625.8,454.9,622.6,454.9z"/>
	<g>
		<path d="M398.6,422.2v-22.5h10.1c4.2,0,6.7,2.8,6.7,7c0,4.2-2.5,7-6.7,7h-5.9v8.6H398.6z M402.8,409.9h5.5c1.6,0,2.6-0.9,2.6-2.5
			v-1.5c0-1.6-1-2.5-2.6-2.5h-5.5V409.9z"/>
		<path d="M418.7,422.2v-16.8h4.1v3.5h0.2c0.4-1.8,1.8-3.5,4.4-3.5h0.9v3.9H427c-2.8,0-4.2,0.8-4.2,2.6v10.3H418.7z"/>
		<path d="M430,413.7c0-5.3,2.9-8.8,7.8-8.8c5.3,0,7.7,3.9,7.7,8.5v1.4h-11.2v0.4c0,2.4,1.4,4.1,4.1,4.1c2,0,3.3-1,4.3-2.3l2.2,2.5
			c-1.4,1.9-3.8,3.1-7,3.1C433,422.6,430,419.1,430,413.7z M434.3,412v0.3h6.9V412c0-2.3-1.2-3.9-3.3-3.9
			C435.7,408.1,434.3,409.7,434.3,412z"/>
		<path d="M449,414.4v-4.1h9.2v4.1H449z"/>
		<path d="M462.7,422.2v-22.5h14.8v3.8h-10.6v5.4h9.3v3.8h-9.3v5.7h10.6v3.8H462.7z"/>
		<path d="M485.7,413.6l-5.6-8.3h4.7l3.5,5.6h0.1l3.4-5.6h4.4l-5.7,8.3l5.7,8.5h-4.7l-3.5-5.8h-0.1l-3.5,5.8H480L485.7,413.6z"/>
		<path d="M500.2,417.9v-9.2h-2.5v-3.3h1.3c1.2,0,1.6-0.6,1.6-1.7v-2.9h3.7v4.6h3.4v3.3h-3.4v10.2h3.2v3.3h-3
			C501.7,422.2,500.2,420.6,500.2,417.9z"/>
		<path d="M510.1,413.7c0-5.3,2.9-8.8,7.8-8.8c5.3,0,7.7,3.9,7.7,8.5v1.4h-11.2v0.4c0,2.4,1.4,4.1,4.1,4.1c2,0,3.3-1,4.3-2.3
			l2.2,2.5c-1.4,1.9-3.8,3.1-7,3.1C513.1,422.6,510.1,419.1,510.1,413.7z M514.4,412v0.3h6.9V412c0-2.3-1.2-3.9-3.3-3.9
			C515.8,408.1,514.4,409.7,514.4,412z"/>
		<path d="M529.2,422.2v-16.8h4.1v2.8h0.2c0.7-1.8,2.1-3.2,4.7-3.2c3.4,0,5.4,2.4,5.4,6.6v10.6h-4.1V412c0-2.4-0.8-3.6-2.8-3.6
			c-1.7,0-3.4,0.9-3.4,2.7v11.1H529.2z"/>
		<path d="M558.6,419.4h-0.2c-0.6,1.9-2.4,3.2-4.6,3.2c-4.2,0-6.6-3.2-6.6-8.8c0-5.6,2.4-8.8,6.6-8.8c2.2,0,4.1,1.2,4.6,3.2h0.2
			v-9.8h4.1v23.8h-4.1V419.4z M558.6,416.4v-5.3c0-1.6-1.5-2.7-3.5-2.7c-2.1,0-3.6,1.6-3.6,4v2.9c0,2.4,1.5,3.9,3.6,3.9
			C557.1,419.1,558.6,418.1,558.6,416.4z"/>
		<path d="M566.4,413.7c0-5.3,2.9-8.8,7.8-8.8c5.3,0,7.7,3.9,7.7,8.5v1.4h-11.2v0.4c0,2.4,1.4,4.1,4.1,4.1c2,0,3.3-1,4.3-2.3
			l2.2,2.5c-1.4,1.9-3.8,3.1-7,3.1C569.3,422.6,566.4,419.1,566.4,413.7z M570.7,412v0.3h6.9V412c0-2.3-1.2-3.9-3.3-3.9
			C572.1,408.1,570.7,409.7,570.7,412z"/>
		<path d="M595.9,419.4h-0.2c-0.6,1.9-2.4,3.2-4.6,3.2c-4.2,0-6.6-3.2-6.6-8.8c0-5.6,2.4-8.8,6.6-8.8c2.2,0,4.1,1.2,4.6,3.2h0.2
			v-9.8h4.1v23.8h-4.1V419.4z M595.9,416.4v-5.3c0-1.6-1.5-2.7-3.5-2.7c-2.1,0-3.6,1.6-3.6,4v2.9c0,2.4,1.5,3.9,3.6,3.9
			C594.4,419.1,595.9,418.1,595.9,416.4z"/>
	</g>
	<g>
		<path d="M570.8,348.6l-1.8-5.7h-8l-1.8,5.7h-4.3l7.5-22.5h5.3l7.5,22.5H570.8z M565,330h-0.2l-2.9,9.2h5.9L565,330z"/>
	</g>
	<g>
		<path d="M421.8,326.1h10.4c3.7,0,6,2.3,6,5.8c0,3.4-2,4.7-4,4.8v0.2c2,0,4.9,1.4,4.9,5.3c0,3.6-2.5,6.4-5.8,6.4h-11.4V326.1z
			 M426,335.5h5.3c1.5,0,2.4-0.9,2.4-2.4v-1c0-1.5-0.9-2.4-2.4-2.4H426V335.5z M426,345h5.9c1.6,0,2.6-0.9,2.6-2.4v-1.1
			c0-1.6-1-2.5-2.6-2.5H426V345z"/>
	</g>
	<polygon class="st6" points="499.2,474.7 508,454.9 490.4,454.9 	"/>
	<g>
		<polygon class="st6" points="480.6,366.4 478.3,344.9 463.1,353.6 		"/>
		<line class="st7" x1="414.6" y1="252" x2="471.1" y2="349.9"/>
	</g>
	<g>
		<polygon class="st6" points="517.7,366.4 535.2,353.6 520,344.9 		"/>
		<line class="st7" x1="583.8" y1="252" x2="527.3" y2="349.9"/>
	</g>
</g>
</svg>
